M48
; DRILL file KiCad 10.0.5 date 2026-09-28T19:44:09
; FORMAT={-:-/ absolute / metric / decimal}
; #@! TF.CreationDate,2026-09-28T19:44:09+05:30
; #@! TF.GenerationSoftware,Kicad,Pcbnew,10.0.5
; #@! TF.FileFunction,MixedPlating,1,2
FMAT,2
METRIC
; #@! TA.AperFunction,Plated,PTH,ComponentDrill
T1C0.700
; #@! TA.AperFunction,Plated,PTH,ComponentDrill
T2C0.750
; #@! TA.AperFunction,Plated,PTH,ComponentDrill
T3C0.800
; #@! TA.AperFunction,Plated,PTH,ComponentDrill
T4C0.900
; #@! TA.AperFunction,Plated,PTH,ComponentDrill
T5C1.000
%
G90
G05
T1
X142.96Y-99.6
X143.46Y-103.5
X143.56Y-107.8
X143.66Y-112.6
X148.04Y-99.6
X148.54Y-103.5
X148.64Y-107.8
X148.74Y-112.6
T2
X124.23Y-101.66
X124.43Y-110.3
X125.5Y-101.66
X125.7Y-110.3
X126.77Y-101.66
X126.97Y-110.3
T3
X133.618Y-102.6
X133.618Y-111.3
X136.118Y-102.6
X136.118Y-111.3
T4
X154.1Y-101.8
X154.3Y-110.7
X156.64Y-101.8
X156.84Y-110.7
T5
X117.6Y-105.86
X117.6Y-108.4
M30
