%TF.GenerationSoftware,KiCad,Pcbnew,10.0.5*%
%TF.CreationDate,2026-09-28T19:44:01+05:30*%
%TF.ProjectId,LED Flip Flop,4c454420-466c-4697-9020-466c6f702e6b,rev?*%
%TF.SameCoordinates,Original*%
%TF.FileFunction,Legend,Top*%
%TF.FilePolarity,Positive*%
%FSLAX46Y46*%
G04 Gerber Fmt 4.6, Leading zero omitted, Abs format (unit mm)*
G04 Created by KiCad (PCBNEW 10.0.5) date 2026-09-28 19:44:01*
%MOMM*%
%LPD*%
G01*
G04 APERTURE LIST*
%ADD10C,0.100000*%
%ADD11C,0.150000*%
%ADD12C,0.120000*%
G04 APERTURE END LIST*
D10*
X116103884Y-98472419D02*
X116103884Y-97472419D01*
X116103884Y-97472419D02*
X116437217Y-98186704D01*
X116437217Y-98186704D02*
X116770550Y-97472419D01*
X116770550Y-97472419D02*
X116770550Y-98472419D01*
X117675312Y-98472419D02*
X117675312Y-97948609D01*
X117675312Y-97948609D02*
X117627693Y-97853371D01*
X117627693Y-97853371D02*
X117532455Y-97805752D01*
X117532455Y-97805752D02*
X117341979Y-97805752D01*
X117341979Y-97805752D02*
X117246741Y-97853371D01*
X117675312Y-98424800D02*
X117580074Y-98472419D01*
X117580074Y-98472419D02*
X117341979Y-98472419D01*
X117341979Y-98472419D02*
X117246741Y-98424800D01*
X117246741Y-98424800D02*
X117199122Y-98329561D01*
X117199122Y-98329561D02*
X117199122Y-98234323D01*
X117199122Y-98234323D02*
X117246741Y-98139085D01*
X117246741Y-98139085D02*
X117341979Y-98091466D01*
X117341979Y-98091466D02*
X117580074Y-98091466D01*
X117580074Y-98091466D02*
X117675312Y-98043847D01*
X118151503Y-97805752D02*
X118151503Y-98472419D01*
X118151503Y-97900990D02*
X118199122Y-97853371D01*
X118199122Y-97853371D02*
X118294360Y-97805752D01*
X118294360Y-97805752D02*
X118437217Y-97805752D01*
X118437217Y-97805752D02*
X118532455Y-97853371D01*
X118532455Y-97853371D02*
X118580074Y-97948609D01*
X118580074Y-97948609D02*
X118580074Y-98472419D01*
X119056265Y-98472419D02*
X119056265Y-97805752D01*
X119056265Y-97472419D02*
X119008646Y-97520038D01*
X119008646Y-97520038D02*
X119056265Y-97567657D01*
X119056265Y-97567657D02*
X119103884Y-97520038D01*
X119103884Y-97520038D02*
X119056265Y-97472419D01*
X119056265Y-97472419D02*
X119056265Y-97567657D01*
X119961026Y-98472419D02*
X119961026Y-97472419D01*
X119961026Y-98424800D02*
X119865788Y-98472419D01*
X119865788Y-98472419D02*
X119675312Y-98472419D01*
X119675312Y-98472419D02*
X119580074Y-98424800D01*
X119580074Y-98424800D02*
X119532455Y-98377180D01*
X119532455Y-98377180D02*
X119484836Y-98281942D01*
X119484836Y-98281942D02*
X119484836Y-97996228D01*
X119484836Y-97996228D02*
X119532455Y-97900990D01*
X119532455Y-97900990D02*
X119580074Y-97853371D01*
X119580074Y-97853371D02*
X119675312Y-97805752D01*
X119675312Y-97805752D02*
X119865788Y-97805752D01*
X119865788Y-97805752D02*
X119961026Y-97853371D01*
X120818169Y-98424800D02*
X120722931Y-98472419D01*
X120722931Y-98472419D02*
X120532455Y-98472419D01*
X120532455Y-98472419D02*
X120437217Y-98424800D01*
X120437217Y-98424800D02*
X120389598Y-98329561D01*
X120389598Y-98329561D02*
X120389598Y-97948609D01*
X120389598Y-97948609D02*
X120437217Y-97853371D01*
X120437217Y-97853371D02*
X120532455Y-97805752D01*
X120532455Y-97805752D02*
X120722931Y-97805752D01*
X120722931Y-97805752D02*
X120818169Y-97853371D01*
X120818169Y-97853371D02*
X120865788Y-97948609D01*
X120865788Y-97948609D02*
X120865788Y-98043847D01*
X120865788Y-98043847D02*
X120389598Y-98139085D01*
X121675312Y-98424800D02*
X121580074Y-98472419D01*
X121580074Y-98472419D02*
X121389598Y-98472419D01*
X121389598Y-98472419D02*
X121294360Y-98424800D01*
X121294360Y-98424800D02*
X121246741Y-98329561D01*
X121246741Y-98329561D02*
X121246741Y-97948609D01*
X121246741Y-97948609D02*
X121294360Y-97853371D01*
X121294360Y-97853371D02*
X121389598Y-97805752D01*
X121389598Y-97805752D02*
X121580074Y-97805752D01*
X121580074Y-97805752D02*
X121675312Y-97853371D01*
X121675312Y-97853371D02*
X121722931Y-97948609D01*
X121722931Y-97948609D02*
X121722931Y-98043847D01*
X121722931Y-98043847D02*
X121246741Y-98139085D01*
X122151503Y-97805752D02*
X122151503Y-98805752D01*
X122151503Y-97853371D02*
X122246741Y-97805752D01*
X122246741Y-97805752D02*
X122437217Y-97805752D01*
X122437217Y-97805752D02*
X122532455Y-97853371D01*
X122532455Y-97853371D02*
X122580074Y-97900990D01*
X122580074Y-97900990D02*
X122627693Y-97996228D01*
X122627693Y-97996228D02*
X122627693Y-98281942D01*
X122627693Y-98281942D02*
X122580074Y-98377180D01*
X122580074Y-98377180D02*
X122532455Y-98424800D01*
X122532455Y-98424800D02*
X122437217Y-98472419D01*
X122437217Y-98472419D02*
X122246741Y-98472419D01*
X122246741Y-98472419D02*
X122151503Y-98424800D01*
D11*
X145613333Y-102254819D02*
X145280000Y-101778628D01*
X145041905Y-102254819D02*
X145041905Y-101254819D01*
X145041905Y-101254819D02*
X145422857Y-101254819D01*
X145422857Y-101254819D02*
X145518095Y-101302438D01*
X145518095Y-101302438D02*
X145565714Y-101350057D01*
X145565714Y-101350057D02*
X145613333Y-101445295D01*
X145613333Y-101445295D02*
X145613333Y-101588152D01*
X145613333Y-101588152D02*
X145565714Y-101683390D01*
X145565714Y-101683390D02*
X145518095Y-101731009D01*
X145518095Y-101731009D02*
X145422857Y-101778628D01*
X145422857Y-101778628D02*
X145041905Y-101778628D01*
X145994286Y-101350057D02*
X146041905Y-101302438D01*
X146041905Y-101302438D02*
X146137143Y-101254819D01*
X146137143Y-101254819D02*
X146375238Y-101254819D01*
X146375238Y-101254819D02*
X146470476Y-101302438D01*
X146470476Y-101302438D02*
X146518095Y-101350057D01*
X146518095Y-101350057D02*
X146565714Y-101445295D01*
X146565714Y-101445295D02*
X146565714Y-101540533D01*
X146565714Y-101540533D02*
X146518095Y-101683390D01*
X146518095Y-101683390D02*
X145946667Y-102254819D01*
X145946667Y-102254819D02*
X146565714Y-102254819D01*
X134700954Y-98559580D02*
X134653335Y-98607200D01*
X134653335Y-98607200D02*
X134510478Y-98654819D01*
X134510478Y-98654819D02*
X134415240Y-98654819D01*
X134415240Y-98654819D02*
X134272383Y-98607200D01*
X134272383Y-98607200D02*
X134177145Y-98511961D01*
X134177145Y-98511961D02*
X134129526Y-98416723D01*
X134129526Y-98416723D02*
X134081907Y-98226247D01*
X134081907Y-98226247D02*
X134081907Y-98083390D01*
X134081907Y-98083390D02*
X134129526Y-97892914D01*
X134129526Y-97892914D02*
X134177145Y-97797676D01*
X134177145Y-97797676D02*
X134272383Y-97702438D01*
X134272383Y-97702438D02*
X134415240Y-97654819D01*
X134415240Y-97654819D02*
X134510478Y-97654819D01*
X134510478Y-97654819D02*
X134653335Y-97702438D01*
X134653335Y-97702438D02*
X134700954Y-97750057D01*
X135653335Y-98654819D02*
X135081907Y-98654819D01*
X135367621Y-98654819D02*
X135367621Y-97654819D01*
X135367621Y-97654819D02*
X135272383Y-97797676D01*
X135272383Y-97797676D02*
X135177145Y-97892914D01*
X135177145Y-97892914D02*
X135081907Y-97940533D01*
X125404761Y-98650057D02*
X125309523Y-98602438D01*
X125309523Y-98602438D02*
X125214285Y-98507200D01*
X125214285Y-98507200D02*
X125071428Y-98364342D01*
X125071428Y-98364342D02*
X124976190Y-98316723D01*
X124976190Y-98316723D02*
X124880952Y-98316723D01*
X124928571Y-98554819D02*
X124833333Y-98507200D01*
X124833333Y-98507200D02*
X124738095Y-98411961D01*
X124738095Y-98411961D02*
X124690476Y-98221485D01*
X124690476Y-98221485D02*
X124690476Y-97888152D01*
X124690476Y-97888152D02*
X124738095Y-97697676D01*
X124738095Y-97697676D02*
X124833333Y-97602438D01*
X124833333Y-97602438D02*
X124928571Y-97554819D01*
X124928571Y-97554819D02*
X125119047Y-97554819D01*
X125119047Y-97554819D02*
X125214285Y-97602438D01*
X125214285Y-97602438D02*
X125309523Y-97697676D01*
X125309523Y-97697676D02*
X125357142Y-97888152D01*
X125357142Y-97888152D02*
X125357142Y-98221485D01*
X125357142Y-98221485D02*
X125309523Y-98411961D01*
X125309523Y-98411961D02*
X125214285Y-98507200D01*
X125214285Y-98507200D02*
X125119047Y-98554819D01*
X125119047Y-98554819D02*
X124928571Y-98554819D01*
X126309523Y-98554819D02*
X125738095Y-98554819D01*
X126023809Y-98554819D02*
X126023809Y-97554819D01*
X126023809Y-97554819D02*
X125928571Y-97697676D01*
X125928571Y-97697676D02*
X125833333Y-97792914D01*
X125833333Y-97792914D02*
X125738095Y-97840533D01*
X125604761Y-114410057D02*
X125509523Y-114362438D01*
X125509523Y-114362438D02*
X125414285Y-114267200D01*
X125414285Y-114267200D02*
X125271428Y-114124342D01*
X125271428Y-114124342D02*
X125176190Y-114076723D01*
X125176190Y-114076723D02*
X125080952Y-114076723D01*
X125128571Y-114314819D02*
X125033333Y-114267200D01*
X125033333Y-114267200D02*
X124938095Y-114171961D01*
X124938095Y-114171961D02*
X124890476Y-113981485D01*
X124890476Y-113981485D02*
X124890476Y-113648152D01*
X124890476Y-113648152D02*
X124938095Y-113457676D01*
X124938095Y-113457676D02*
X125033333Y-113362438D01*
X125033333Y-113362438D02*
X125128571Y-113314819D01*
X125128571Y-113314819D02*
X125319047Y-113314819D01*
X125319047Y-113314819D02*
X125414285Y-113362438D01*
X125414285Y-113362438D02*
X125509523Y-113457676D01*
X125509523Y-113457676D02*
X125557142Y-113648152D01*
X125557142Y-113648152D02*
X125557142Y-113981485D01*
X125557142Y-113981485D02*
X125509523Y-114171961D01*
X125509523Y-114171961D02*
X125414285Y-114267200D01*
X125414285Y-114267200D02*
X125319047Y-114314819D01*
X125319047Y-114314819D02*
X125128571Y-114314819D01*
X125938095Y-113410057D02*
X125985714Y-113362438D01*
X125985714Y-113362438D02*
X126080952Y-113314819D01*
X126080952Y-113314819D02*
X126319047Y-113314819D01*
X126319047Y-113314819D02*
X126414285Y-113362438D01*
X126414285Y-113362438D02*
X126461904Y-113410057D01*
X126461904Y-113410057D02*
X126509523Y-113505295D01*
X126509523Y-113505295D02*
X126509523Y-113600533D01*
X126509523Y-113600533D02*
X126461904Y-113743390D01*
X126461904Y-113743390D02*
X125890476Y-114314819D01*
X125890476Y-114314819D02*
X126509523Y-114314819D01*
X117266666Y-102934819D02*
X117266666Y-103649104D01*
X117266666Y-103649104D02*
X117219047Y-103791961D01*
X117219047Y-103791961D02*
X117123809Y-103887200D01*
X117123809Y-103887200D02*
X116980952Y-103934819D01*
X116980952Y-103934819D02*
X116885714Y-103934819D01*
X118266666Y-103934819D02*
X117695238Y-103934819D01*
X117980952Y-103934819D02*
X117980952Y-102934819D01*
X117980952Y-102934819D02*
X117885714Y-103077676D01*
X117885714Y-103077676D02*
X117790476Y-103172914D01*
X117790476Y-103172914D02*
X117695238Y-103220533D01*
X140833333Y-98354819D02*
X140500000Y-97878628D01*
X140261905Y-98354819D02*
X140261905Y-97354819D01*
X140261905Y-97354819D02*
X140642857Y-97354819D01*
X140642857Y-97354819D02*
X140738095Y-97402438D01*
X140738095Y-97402438D02*
X140785714Y-97450057D01*
X140785714Y-97450057D02*
X140833333Y-97545295D01*
X140833333Y-97545295D02*
X140833333Y-97688152D01*
X140833333Y-97688152D02*
X140785714Y-97783390D01*
X140785714Y-97783390D02*
X140738095Y-97831009D01*
X140738095Y-97831009D02*
X140642857Y-97878628D01*
X140642857Y-97878628D02*
X140261905Y-97878628D01*
X141785714Y-98354819D02*
X141214286Y-98354819D01*
X141500000Y-98354819D02*
X141500000Y-97354819D01*
X141500000Y-97354819D02*
X141404762Y-97497676D01*
X141404762Y-97497676D02*
X141309524Y-97592914D01*
X141309524Y-97592914D02*
X141214286Y-97640533D01*
X145933333Y-106334819D02*
X145600000Y-105858628D01*
X145361905Y-106334819D02*
X145361905Y-105334819D01*
X145361905Y-105334819D02*
X145742857Y-105334819D01*
X145742857Y-105334819D02*
X145838095Y-105382438D01*
X145838095Y-105382438D02*
X145885714Y-105430057D01*
X145885714Y-105430057D02*
X145933333Y-105525295D01*
X145933333Y-105525295D02*
X145933333Y-105668152D01*
X145933333Y-105668152D02*
X145885714Y-105763390D01*
X145885714Y-105763390D02*
X145838095Y-105811009D01*
X145838095Y-105811009D02*
X145742857Y-105858628D01*
X145742857Y-105858628D02*
X145361905Y-105858628D01*
X146266667Y-105334819D02*
X146885714Y-105334819D01*
X146885714Y-105334819D02*
X146552381Y-105715771D01*
X146552381Y-105715771D02*
X146695238Y-105715771D01*
X146695238Y-105715771D02*
X146790476Y-105763390D01*
X146790476Y-105763390D02*
X146838095Y-105811009D01*
X146838095Y-105811009D02*
X146885714Y-105906247D01*
X146885714Y-105906247D02*
X146885714Y-106144342D01*
X146885714Y-106144342D02*
X146838095Y-106239580D01*
X146838095Y-106239580D02*
X146790476Y-106287200D01*
X146790476Y-106287200D02*
X146695238Y-106334819D01*
X146695238Y-106334819D02*
X146409524Y-106334819D01*
X146409524Y-106334819D02*
X146314286Y-106287200D01*
X146314286Y-106287200D02*
X146266667Y-106239580D01*
X146033333Y-111134819D02*
X145700000Y-110658628D01*
X145461905Y-111134819D02*
X145461905Y-110134819D01*
X145461905Y-110134819D02*
X145842857Y-110134819D01*
X145842857Y-110134819D02*
X145938095Y-110182438D01*
X145938095Y-110182438D02*
X145985714Y-110230057D01*
X145985714Y-110230057D02*
X146033333Y-110325295D01*
X146033333Y-110325295D02*
X146033333Y-110468152D01*
X146033333Y-110468152D02*
X145985714Y-110563390D01*
X145985714Y-110563390D02*
X145938095Y-110611009D01*
X145938095Y-110611009D02*
X145842857Y-110658628D01*
X145842857Y-110658628D02*
X145461905Y-110658628D01*
X146890476Y-110468152D02*
X146890476Y-111134819D01*
X146652381Y-110087200D02*
X146414286Y-110801485D01*
X146414286Y-110801485D02*
X147033333Y-110801485D01*
X154831905Y-107194819D02*
X154831905Y-106194819D01*
X154831905Y-106194819D02*
X155070000Y-106194819D01*
X155070000Y-106194819D02*
X155212857Y-106242438D01*
X155212857Y-106242438D02*
X155308095Y-106337676D01*
X155308095Y-106337676D02*
X155355714Y-106432914D01*
X155355714Y-106432914D02*
X155403333Y-106623390D01*
X155403333Y-106623390D02*
X155403333Y-106766247D01*
X155403333Y-106766247D02*
X155355714Y-106956723D01*
X155355714Y-106956723D02*
X155308095Y-107051961D01*
X155308095Y-107051961D02*
X155212857Y-107147200D01*
X155212857Y-107147200D02*
X155070000Y-107194819D01*
X155070000Y-107194819D02*
X154831905Y-107194819D01*
X155784286Y-106290057D02*
X155831905Y-106242438D01*
X155831905Y-106242438D02*
X155927143Y-106194819D01*
X155927143Y-106194819D02*
X156165238Y-106194819D01*
X156165238Y-106194819D02*
X156260476Y-106242438D01*
X156260476Y-106242438D02*
X156308095Y-106290057D01*
X156308095Y-106290057D02*
X156355714Y-106385295D01*
X156355714Y-106385295D02*
X156355714Y-106480533D01*
X156355714Y-106480533D02*
X156308095Y-106623390D01*
X156308095Y-106623390D02*
X155736667Y-107194819D01*
X155736667Y-107194819D02*
X156355714Y-107194819D01*
X134700954Y-107259580D02*
X134653335Y-107307200D01*
X134653335Y-107307200D02*
X134510478Y-107354819D01*
X134510478Y-107354819D02*
X134415240Y-107354819D01*
X134415240Y-107354819D02*
X134272383Y-107307200D01*
X134272383Y-107307200D02*
X134177145Y-107211961D01*
X134177145Y-107211961D02*
X134129526Y-107116723D01*
X134129526Y-107116723D02*
X134081907Y-106926247D01*
X134081907Y-106926247D02*
X134081907Y-106783390D01*
X134081907Y-106783390D02*
X134129526Y-106592914D01*
X134129526Y-106592914D02*
X134177145Y-106497676D01*
X134177145Y-106497676D02*
X134272383Y-106402438D01*
X134272383Y-106402438D02*
X134415240Y-106354819D01*
X134415240Y-106354819D02*
X134510478Y-106354819D01*
X134510478Y-106354819D02*
X134653335Y-106402438D01*
X134653335Y-106402438D02*
X134700954Y-106450057D01*
X135081907Y-106450057D02*
X135129526Y-106402438D01*
X135129526Y-106402438D02*
X135224764Y-106354819D01*
X135224764Y-106354819D02*
X135462859Y-106354819D01*
X135462859Y-106354819D02*
X135558097Y-106402438D01*
X135558097Y-106402438D02*
X135605716Y-106450057D01*
X135605716Y-106450057D02*
X135653335Y-106545295D01*
X135653335Y-106545295D02*
X135653335Y-106640533D01*
X135653335Y-106640533D02*
X135605716Y-106783390D01*
X135605716Y-106783390D02*
X135034288Y-107354819D01*
X135034288Y-107354819D02*
X135653335Y-107354819D01*
X154631905Y-98294819D02*
X154631905Y-97294819D01*
X154631905Y-97294819D02*
X154870000Y-97294819D01*
X154870000Y-97294819D02*
X155012857Y-97342438D01*
X155012857Y-97342438D02*
X155108095Y-97437676D01*
X155108095Y-97437676D02*
X155155714Y-97532914D01*
X155155714Y-97532914D02*
X155203333Y-97723390D01*
X155203333Y-97723390D02*
X155203333Y-97866247D01*
X155203333Y-97866247D02*
X155155714Y-98056723D01*
X155155714Y-98056723D02*
X155108095Y-98151961D01*
X155108095Y-98151961D02*
X155012857Y-98247200D01*
X155012857Y-98247200D02*
X154870000Y-98294819D01*
X154870000Y-98294819D02*
X154631905Y-98294819D01*
X156155714Y-98294819D02*
X155584286Y-98294819D01*
X155870000Y-98294819D02*
X155870000Y-97294819D01*
X155870000Y-97294819D02*
X155774762Y-97437676D01*
X155774762Y-97437676D02*
X155679524Y-97532914D01*
X155679524Y-97532914D02*
X155584286Y-97580533D01*
%TO.C,R2*%
D12*
X147920000Y-102580000D02*
X144080000Y-102580000D01*
X147920000Y-104420000D02*
X144080000Y-104420000D01*
%TO.C,C1*%
X131367380Y-100761000D02*
X131997380Y-100761000D01*
X131682380Y-100446000D02*
X131682380Y-101076000D01*
X134867621Y-99370000D02*
X134867621Y-105830000D01*
X134907621Y-99370000D02*
X134907621Y-105830000D01*
X134947621Y-99371000D02*
X134947621Y-105829000D01*
X134987621Y-99372000D02*
X134987621Y-105828000D01*
X135027621Y-99374000D02*
X135027621Y-105826000D01*
X135067621Y-99376000D02*
X135067621Y-105824000D01*
X135107621Y-99379000D02*
X135107621Y-101560000D01*
X135107621Y-103640000D02*
X135107621Y-105821000D01*
X135147621Y-99382000D02*
X135147621Y-101560000D01*
X135147621Y-103640000D02*
X135147621Y-105818000D01*
X135187621Y-99386000D02*
X135187621Y-101560000D01*
X135187621Y-103640000D02*
X135187621Y-105814000D01*
X135227621Y-99390000D02*
X135227621Y-101560000D01*
X135227621Y-103640000D02*
X135227621Y-105810000D01*
X135267621Y-99395000D02*
X135267621Y-101560000D01*
X135267621Y-103640000D02*
X135267621Y-105805000D01*
X135307621Y-99400000D02*
X135307621Y-101560000D01*
X135307621Y-103640000D02*
X135307621Y-105800000D01*
X135347621Y-99405000D02*
X135347621Y-101560000D01*
X135347621Y-103640000D02*
X135347621Y-105795000D01*
X135387621Y-99412000D02*
X135387621Y-101560000D01*
X135387621Y-103640000D02*
X135387621Y-105788000D01*
X135427621Y-99418000D02*
X135427621Y-101560000D01*
X135427621Y-103640000D02*
X135427621Y-105782000D01*
X135467621Y-99426000D02*
X135467621Y-101560000D01*
X135467621Y-103640000D02*
X135467621Y-105774000D01*
X135507621Y-99433000D02*
X135507621Y-101560000D01*
X135507621Y-103640000D02*
X135507621Y-105767000D01*
X135547621Y-99441000D02*
X135547621Y-101560000D01*
X135547621Y-103640000D02*
X135547621Y-105759000D01*
X135587621Y-99450000D02*
X135587621Y-101560000D01*
X135587621Y-103640000D02*
X135587621Y-105750000D01*
X135627621Y-99460000D02*
X135627621Y-101560000D01*
X135627621Y-103640000D02*
X135627621Y-105740000D01*
X135667621Y-99469000D02*
X135667621Y-101560000D01*
X135667621Y-103640000D02*
X135667621Y-105731000D01*
X135707621Y-99480000D02*
X135707621Y-101560000D01*
X135707621Y-103640000D02*
X135707621Y-105720000D01*
X135747621Y-99491000D02*
X135747621Y-101560000D01*
X135747621Y-103640000D02*
X135747621Y-105709000D01*
X135787621Y-99502000D02*
X135787621Y-101560000D01*
X135787621Y-103640000D02*
X135787621Y-105698000D01*
X135827621Y-99514000D02*
X135827621Y-101560000D01*
X135827621Y-103640000D02*
X135827621Y-105686000D01*
X135867621Y-99527000D02*
X135867621Y-101560000D01*
X135867621Y-103640000D02*
X135867621Y-105673000D01*
X135907621Y-99540000D02*
X135907621Y-101560000D01*
X135907621Y-103640000D02*
X135907621Y-105660000D01*
X135947621Y-99553000D02*
X135947621Y-101560000D01*
X135947621Y-103640000D02*
X135947621Y-105647000D01*
X135987621Y-99568000D02*
X135987621Y-101560000D01*
X135987621Y-103640000D02*
X135987621Y-105632000D01*
X136027621Y-99583000D02*
X136027621Y-101560000D01*
X136027621Y-103640000D02*
X136027621Y-105617000D01*
X136067621Y-99598000D02*
X136067621Y-101560000D01*
X136067621Y-103640000D02*
X136067621Y-105602000D01*
X136107621Y-99614000D02*
X136107621Y-101560000D01*
X136107621Y-103640000D02*
X136107621Y-105586000D01*
X136147621Y-99631000D02*
X136147621Y-101560000D01*
X136147621Y-103640000D02*
X136147621Y-105569000D01*
X136187621Y-99648000D02*
X136187621Y-101560000D01*
X136187621Y-103640000D02*
X136187621Y-105552000D01*
X136227621Y-99666000D02*
X136227621Y-101560000D01*
X136227621Y-103640000D02*
X136227621Y-105534000D01*
X136267621Y-99685000D02*
X136267621Y-101560000D01*
X136267621Y-103640000D02*
X136267621Y-105515000D01*
X136307621Y-99704000D02*
X136307621Y-101560000D01*
X136307621Y-103640000D02*
X136307621Y-105496000D01*
X136347621Y-99724000D02*
X136347621Y-101560000D01*
X136347621Y-103640000D02*
X136347621Y-105476000D01*
X136387621Y-99745000D02*
X136387621Y-101560000D01*
X136387621Y-103640000D02*
X136387621Y-105455000D01*
X136427621Y-99766000D02*
X136427621Y-101560000D01*
X136427621Y-103640000D02*
X136427621Y-105434000D01*
X136467621Y-99788000D02*
X136467621Y-101560000D01*
X136467621Y-103640000D02*
X136467621Y-105412000D01*
X136507621Y-99811000D02*
X136507621Y-101560000D01*
X136507621Y-103640000D02*
X136507621Y-105389000D01*
X136547621Y-99835000D02*
X136547621Y-101560000D01*
X136547621Y-103640000D02*
X136547621Y-105365000D01*
X136587621Y-99859000D02*
X136587621Y-101560000D01*
X136587621Y-103640000D02*
X136587621Y-105341000D01*
X136627621Y-99884000D02*
X136627621Y-101560000D01*
X136627621Y-103640000D02*
X136627621Y-105316000D01*
X136667621Y-99910000D02*
X136667621Y-101560000D01*
X136667621Y-103640000D02*
X136667621Y-105290000D01*
X136707621Y-99937000D02*
X136707621Y-101560000D01*
X136707621Y-103640000D02*
X136707621Y-105263000D01*
X136747621Y-99964000D02*
X136747621Y-101560000D01*
X136747621Y-103640000D02*
X136747621Y-105236000D01*
X136787621Y-99993000D02*
X136787621Y-101560000D01*
X136787621Y-103640000D02*
X136787621Y-105207000D01*
X136827621Y-100023000D02*
X136827621Y-101560000D01*
X136827621Y-103640000D02*
X136827621Y-105177000D01*
X136867621Y-100053000D02*
X136867621Y-101560000D01*
X136867621Y-103640000D02*
X136867621Y-105147000D01*
X136907621Y-100084000D02*
X136907621Y-101560000D01*
X136907621Y-103640000D02*
X136907621Y-105116000D01*
X136947621Y-100117000D02*
X136947621Y-101560000D01*
X136947621Y-103640000D02*
X136947621Y-105083000D01*
X136987621Y-100150000D02*
X136987621Y-101560000D01*
X136987621Y-103640000D02*
X136987621Y-105050000D01*
X137027621Y-100185000D02*
X137027621Y-101560000D01*
X137027621Y-103640000D02*
X137027621Y-105015000D01*
X137067621Y-100221000D02*
X137067621Y-101560000D01*
X137067621Y-103640000D02*
X137067621Y-104979000D01*
X137107621Y-100258000D02*
X137107621Y-101560000D01*
X137107621Y-103640000D02*
X137107621Y-104942000D01*
X137147621Y-100296000D02*
X137147621Y-101560000D01*
X137147621Y-103640000D02*
X137147621Y-104904000D01*
X137187621Y-100336000D02*
X137187621Y-104864000D01*
X137227621Y-100377000D02*
X137227621Y-104823000D01*
X137267621Y-100419000D02*
X137267621Y-104781000D01*
X137307621Y-100463000D02*
X137307621Y-104737000D01*
X137347621Y-100509000D02*
X137347621Y-104691000D01*
X137387621Y-100556000D02*
X137387621Y-104644000D01*
X137427621Y-100605000D02*
X137427621Y-104595000D01*
X137467621Y-100657000D02*
X137467621Y-104543000D01*
X137507621Y-100710000D02*
X137507621Y-104490000D01*
X137547621Y-100766000D02*
X137547621Y-104434000D01*
X137587621Y-100825000D02*
X137587621Y-104375000D01*
X137627621Y-100886000D02*
X137627621Y-104314000D01*
X137667621Y-100951000D02*
X137667621Y-104249000D01*
X137707621Y-101019000D02*
X137707621Y-104181000D01*
X137747621Y-101091000D02*
X137747621Y-104109000D01*
X137787621Y-101168000D02*
X137787621Y-104032000D01*
X137827621Y-101250000D02*
X137827621Y-103950000D01*
X137867621Y-101339000D02*
X137867621Y-103861000D01*
X137907621Y-101435000D02*
X137907621Y-103765000D01*
X137947621Y-101542000D02*
X137947621Y-103658000D01*
X137987621Y-101661000D02*
X137987621Y-103539000D01*
X138027621Y-101799000D02*
X138027621Y-103401000D01*
X138067621Y-101967000D02*
X138067621Y-103233000D01*
X138107621Y-102198000D02*
X138107621Y-103002000D01*
X138137621Y-102600000D02*
G75*
G02*
X131597621Y-102600000I-3270000J0D01*
G01*
X131597621Y-102600000D02*
G75*
G02*
X138137621Y-102600000I3270000J0D01*
G01*
%TO.C,Q1*%
X123700000Y-103510000D02*
X127300000Y-103510000D01*
X123661522Y-103498478D02*
G75*
G02*
X125500000Y-99059999I1838478J1838478D01*
G01*
X125500000Y-99060000D02*
G75*
G02*
X127338478Y-103498478I0J-2600000D01*
G01*
%TO.C,Q2*%
X127500000Y-108450000D02*
X123900000Y-108450000D01*
X125700000Y-112900000D02*
G75*
G02*
X123861522Y-108461522I0J2600000D01*
G01*
X127538478Y-108461522D02*
G75*
G02*
X125700000Y-112900001I-1838478J-1838478D01*
G01*
%TO.C,J1*%
X116220000Y-104480000D02*
X117600000Y-104480000D01*
X116220000Y-105860000D02*
X116220000Y-104480000D01*
X116220000Y-107130000D02*
X116220000Y-109780000D01*
X116220000Y-107130000D02*
X118980000Y-107130000D01*
X116220000Y-109780000D02*
X118980000Y-109780000D01*
X118980000Y-107130000D02*
X118980000Y-109780000D01*
%TO.C,R1*%
X147420000Y-98680000D02*
X143580000Y-98680000D01*
X147420000Y-100520000D02*
X143580000Y-100520000D01*
%TO.C,R3*%
X144180000Y-106880000D02*
X148020000Y-106880000D01*
X144180000Y-108720000D02*
X148020000Y-108720000D01*
%TO.C,R4*%
X144280000Y-111680000D02*
X148120000Y-111680000D01*
X144280000Y-113520000D02*
X148120000Y-113520000D01*
%TO.C,D2*%
X153010000Y-109155000D02*
X153010000Y-112245000D01*
X153010000Y-109155170D02*
G75*
G02*
X158560000Y-110700000I2560000J-1544830D01*
G01*
X158560000Y-110700000D02*
G75*
G02*
X153010000Y-112244830I-2990000J0D01*
G01*
X158070000Y-110700000D02*
G75*
G02*
X153070000Y-110700000I-2500000J0D01*
G01*
X153070000Y-110700000D02*
G75*
G02*
X158070000Y-110700000I2500000J0D01*
G01*
%TO.C,C2*%
X131367380Y-109461000D02*
X131997380Y-109461000D01*
X131682380Y-109146000D02*
X131682380Y-109776000D01*
X134867621Y-108070000D02*
X134867621Y-114530000D01*
X134907621Y-108070000D02*
X134907621Y-114530000D01*
X134947621Y-108071000D02*
X134947621Y-114529000D01*
X134987621Y-108072000D02*
X134987621Y-114528000D01*
X135027621Y-108074000D02*
X135027621Y-114526000D01*
X135067621Y-108076000D02*
X135067621Y-114524000D01*
X135107621Y-108079000D02*
X135107621Y-110260000D01*
X135107621Y-112340000D02*
X135107621Y-114521000D01*
X135147621Y-108082000D02*
X135147621Y-110260000D01*
X135147621Y-112340000D02*
X135147621Y-114518000D01*
X135187621Y-108086000D02*
X135187621Y-110260000D01*
X135187621Y-112340000D02*
X135187621Y-114514000D01*
X135227621Y-108090000D02*
X135227621Y-110260000D01*
X135227621Y-112340000D02*
X135227621Y-114510000D01*
X135267621Y-108095000D02*
X135267621Y-110260000D01*
X135267621Y-112340000D02*
X135267621Y-114505000D01*
X135307621Y-108100000D02*
X135307621Y-110260000D01*
X135307621Y-112340000D02*
X135307621Y-114500000D01*
X135347621Y-108105000D02*
X135347621Y-110260000D01*
X135347621Y-112340000D02*
X135347621Y-114495000D01*
X135387621Y-108112000D02*
X135387621Y-110260000D01*
X135387621Y-112340000D02*
X135387621Y-114488000D01*
X135427621Y-108118000D02*
X135427621Y-110260000D01*
X135427621Y-112340000D02*
X135427621Y-114482000D01*
X135467621Y-108126000D02*
X135467621Y-110260000D01*
X135467621Y-112340000D02*
X135467621Y-114474000D01*
X135507621Y-108133000D02*
X135507621Y-110260000D01*
X135507621Y-112340000D02*
X135507621Y-114467000D01*
X135547621Y-108141000D02*
X135547621Y-110260000D01*
X135547621Y-112340000D02*
X135547621Y-114459000D01*
X135587621Y-108150000D02*
X135587621Y-110260000D01*
X135587621Y-112340000D02*
X135587621Y-114450000D01*
X135627621Y-108160000D02*
X135627621Y-110260000D01*
X135627621Y-112340000D02*
X135627621Y-114440000D01*
X135667621Y-108169000D02*
X135667621Y-110260000D01*
X135667621Y-112340000D02*
X135667621Y-114431000D01*
X135707621Y-108180000D02*
X135707621Y-110260000D01*
X135707621Y-112340000D02*
X135707621Y-114420000D01*
X135747621Y-108191000D02*
X135747621Y-110260000D01*
X135747621Y-112340000D02*
X135747621Y-114409000D01*
X135787621Y-108202000D02*
X135787621Y-110260000D01*
X135787621Y-112340000D02*
X135787621Y-114398000D01*
X135827621Y-108214000D02*
X135827621Y-110260000D01*
X135827621Y-112340000D02*
X135827621Y-114386000D01*
X135867621Y-108227000D02*
X135867621Y-110260000D01*
X135867621Y-112340000D02*
X135867621Y-114373000D01*
X135907621Y-108240000D02*
X135907621Y-110260000D01*
X135907621Y-112340000D02*
X135907621Y-114360000D01*
X135947621Y-108253000D02*
X135947621Y-110260000D01*
X135947621Y-112340000D02*
X135947621Y-114347000D01*
X135987621Y-108268000D02*
X135987621Y-110260000D01*
X135987621Y-112340000D02*
X135987621Y-114332000D01*
X136027621Y-108283000D02*
X136027621Y-110260000D01*
X136027621Y-112340000D02*
X136027621Y-114317000D01*
X136067621Y-108298000D02*
X136067621Y-110260000D01*
X136067621Y-112340000D02*
X136067621Y-114302000D01*
X136107621Y-108314000D02*
X136107621Y-110260000D01*
X136107621Y-112340000D02*
X136107621Y-114286000D01*
X136147621Y-108331000D02*
X136147621Y-110260000D01*
X136147621Y-112340000D02*
X136147621Y-114269000D01*
X136187621Y-108348000D02*
X136187621Y-110260000D01*
X136187621Y-112340000D02*
X136187621Y-114252000D01*
X136227621Y-108366000D02*
X136227621Y-110260000D01*
X136227621Y-112340000D02*
X136227621Y-114234000D01*
X136267621Y-108385000D02*
X136267621Y-110260000D01*
X136267621Y-112340000D02*
X136267621Y-114215000D01*
X136307621Y-108404000D02*
X136307621Y-110260000D01*
X136307621Y-112340000D02*
X136307621Y-114196000D01*
X136347621Y-108424000D02*
X136347621Y-110260000D01*
X136347621Y-112340000D02*
X136347621Y-114176000D01*
X136387621Y-108445000D02*
X136387621Y-110260000D01*
X136387621Y-112340000D02*
X136387621Y-114155000D01*
X136427621Y-108466000D02*
X136427621Y-110260000D01*
X136427621Y-112340000D02*
X136427621Y-114134000D01*
X136467621Y-108488000D02*
X136467621Y-110260000D01*
X136467621Y-112340000D02*
X136467621Y-114112000D01*
X136507621Y-108511000D02*
X136507621Y-110260000D01*
X136507621Y-112340000D02*
X136507621Y-114089000D01*
X136547621Y-108535000D02*
X136547621Y-110260000D01*
X136547621Y-112340000D02*
X136547621Y-114065000D01*
X136587621Y-108559000D02*
X136587621Y-110260000D01*
X136587621Y-112340000D02*
X136587621Y-114041000D01*
X136627621Y-108584000D02*
X136627621Y-110260000D01*
X136627621Y-112340000D02*
X136627621Y-114016000D01*
X136667621Y-108610000D02*
X136667621Y-110260000D01*
X136667621Y-112340000D02*
X136667621Y-113990000D01*
X136707621Y-108637000D02*
X136707621Y-110260000D01*
X136707621Y-112340000D02*
X136707621Y-113963000D01*
X136747621Y-108664000D02*
X136747621Y-110260000D01*
X136747621Y-112340000D02*
X136747621Y-113936000D01*
X136787621Y-108693000D02*
X136787621Y-110260000D01*
X136787621Y-112340000D02*
X136787621Y-113907000D01*
X136827621Y-108723000D02*
X136827621Y-110260000D01*
X136827621Y-112340000D02*
X136827621Y-113877000D01*
X136867621Y-108753000D02*
X136867621Y-110260000D01*
X136867621Y-112340000D02*
X136867621Y-113847000D01*
X136907621Y-108784000D02*
X136907621Y-110260000D01*
X136907621Y-112340000D02*
X136907621Y-113816000D01*
X136947621Y-108817000D02*
X136947621Y-110260000D01*
X136947621Y-112340000D02*
X136947621Y-113783000D01*
X136987621Y-108850000D02*
X136987621Y-110260000D01*
X136987621Y-112340000D02*
X136987621Y-113750000D01*
X137027621Y-108885000D02*
X137027621Y-110260000D01*
X137027621Y-112340000D02*
X137027621Y-113715000D01*
X137067621Y-108921000D02*
X137067621Y-110260000D01*
X137067621Y-112340000D02*
X137067621Y-113679000D01*
X137107621Y-108958000D02*
X137107621Y-110260000D01*
X137107621Y-112340000D02*
X137107621Y-113642000D01*
X137147621Y-108996000D02*
X137147621Y-110260000D01*
X137147621Y-112340000D02*
X137147621Y-113604000D01*
X137187621Y-109036000D02*
X137187621Y-113564000D01*
X137227621Y-109077000D02*
X137227621Y-113523000D01*
X137267621Y-109119000D02*
X137267621Y-113481000D01*
X137307621Y-109163000D02*
X137307621Y-113437000D01*
X137347621Y-109209000D02*
X137347621Y-113391000D01*
X137387621Y-109256000D02*
X137387621Y-113344000D01*
X137427621Y-109305000D02*
X137427621Y-113295000D01*
X137467621Y-109357000D02*
X137467621Y-113243000D01*
X137507621Y-109410000D02*
X137507621Y-113190000D01*
X137547621Y-109466000D02*
X137547621Y-113134000D01*
X137587621Y-109525000D02*
X137587621Y-113075000D01*
X137627621Y-109586000D02*
X137627621Y-113014000D01*
X137667621Y-109651000D02*
X137667621Y-112949000D01*
X137707621Y-109719000D02*
X137707621Y-112881000D01*
X137747621Y-109791000D02*
X137747621Y-112809000D01*
X137787621Y-109868000D02*
X137787621Y-112732000D01*
X137827621Y-109950000D02*
X137827621Y-112650000D01*
X137867621Y-110039000D02*
X137867621Y-112561000D01*
X137907621Y-110135000D02*
X137907621Y-112465000D01*
X137947621Y-110242000D02*
X137947621Y-112358000D01*
X137987621Y-110361000D02*
X137987621Y-112239000D01*
X138027621Y-110499000D02*
X138027621Y-112101000D01*
X138067621Y-110667000D02*
X138067621Y-111933000D01*
X138107621Y-110898000D02*
X138107621Y-111702000D01*
X138137621Y-111300000D02*
G75*
G02*
X131597621Y-111300000I-3270000J0D01*
G01*
X131597621Y-111300000D02*
G75*
G02*
X138137621Y-111300000I3270000J0D01*
G01*
%TO.C,D1*%
X152810000Y-100255000D02*
X152810000Y-103345000D01*
X152810000Y-100255170D02*
G75*
G02*
X158360000Y-101800000I2560000J-1544830D01*
G01*
X158360000Y-101800000D02*
G75*
G02*
X152810000Y-103344830I-2990000J0D01*
G01*
X157870000Y-101800000D02*
G75*
G02*
X152870000Y-101800000I-2500000J0D01*
G01*
X152870000Y-101800000D02*
G75*
G02*
X157870000Y-101800000I2500000J0D01*
G01*
%TD*%
M02*
