%TF.GenerationSoftware,KiCad,Pcbnew,10.0.5*%
%TF.CreationDate,2026-09-28T19:44:01+05:30*%
%TF.ProjectId,LED Flip Flop,4c454420-466c-4697-9020-466c6f702e6b,rev?*%
%TF.SameCoordinates,Original*%
%TF.FileFunction,Copper,L1,Top*%
%TF.FilePolarity,Positive*%
%FSLAX46Y46*%
G04 Gerber Fmt 4.6, Leading zero omitted, Abs format (unit mm)*
G04 Created by KiCad (PCBNEW 10.0.5) date 2026-09-28 19:44:01*
%MOMM*%
%LPD*%
G01*
G04 APERTURE LIST*
G04 Aperture macros list*
%AMRoundRect*
0 Rectangle with rounded corners*
0 $1 Rounding radius*
0 $2 $3 $4 $5 $6 $7 $8 $9 X,Y pos of 4 corners*
0 Add a 4 corners polygon primitive as box body*
4,1,4,$2,$3,$4,$5,$6,$7,$8,$9,$2,$3,0*
0 Add four circle primitives for the rounded corners*
1,1,$1+$1,$2,$3*
1,1,$1+$1,$4,$5*
1,1,$1+$1,$6,$7*
1,1,$1+$1,$8,$9*
0 Add four rect primitives between the rounded corners*
20,1,$1+$1,$2,$3,$4,$5,0*
20,1,$1+$1,$4,$5,$6,$7,0*
20,1,$1+$1,$6,$7,$8,$9,0*
20,1,$1+$1,$8,$9,$2,$3,0*%
G04 Aperture macros list end*
%TA.AperFunction,ComponentPad*%
%ADD10C,1.400000*%
%TD*%
%TA.AperFunction,ComponentPad*%
%ADD11RoundRect,0.250000X-0.550000X-0.550000X0.550000X-0.550000X0.550000X0.550000X-0.550000X0.550000X0*%
%TD*%
%TA.AperFunction,ComponentPad*%
%ADD12C,1.600000*%
%TD*%
%TA.AperFunction,ComponentPad*%
%ADD13R,1.050000X1.500000*%
%TD*%
%TA.AperFunction,ComponentPad*%
%ADD14O,1.050000X1.500000*%
%TD*%
%TA.AperFunction,ComponentPad*%
%ADD15R,1.700000X1.700000*%
%TD*%
%TA.AperFunction,ComponentPad*%
%ADD16C,1.700000*%
%TD*%
%TA.AperFunction,ComponentPad*%
%ADD17R,1.800000X1.800000*%
%TD*%
%TA.AperFunction,ComponentPad*%
%ADD18C,1.800000*%
%TD*%
%TA.AperFunction,Conductor*%
%ADD19C,0.500000*%
%TD*%
G04 APERTURE END LIST*
D10*
%TO.P,R2,1*%
%TO.N,Net-(J1-Pin_1)*%
X148540000Y-103500000D03*
%TO.P,R2,2*%
%TO.N,Net-(Q2-B)*%
X143460000Y-103500000D03*
%TD*%
D11*
%TO.P,C1,1*%
%TO.N,Net-(D1-K)*%
X133617621Y-102600000D03*
D12*
%TO.P,C1,2*%
%TO.N,Net-(Q2-B)*%
X136117621Y-102600000D03*
%TD*%
D13*
%TO.P,Q1,1,C_1*%
%TO.N,GND*%
X124230000Y-101660000D03*
D14*
%TO.P,Q1,2,B_2*%
%TO.N,Net-(Q1-B)*%
X125500000Y-101660000D03*
%TO.P,Q1,3,E_3*%
%TO.N,Net-(D1-K)*%
X126770000Y-101660000D03*
%TD*%
D13*
%TO.P,Q2,1,C_1*%
%TO.N,Net-(D2-K)*%
X126970000Y-110300000D03*
D14*
%TO.P,Q2,2,B_2*%
%TO.N,Net-(Q2-B)*%
X125700000Y-110300000D03*
%TO.P,Q2,3,E_3*%
%TO.N,GND*%
X124430000Y-110300000D03*
%TD*%
D15*
%TO.P,J1,1,Pin_1_1*%
%TO.N,Net-(J1-Pin_1)*%
X117600000Y-105860000D03*
D16*
%TO.P,J1,2,Pin_2_2*%
%TO.N,GND*%
X117600000Y-108400000D03*
%TD*%
D10*
%TO.P,R1,1*%
%TO.N,Net-(J1-Pin_1)*%
X148040000Y-99600000D03*
%TO.P,R1,2*%
%TO.N,Net-(D1-A)*%
X142960000Y-99600000D03*
%TD*%
%TO.P,R3,1*%
%TO.N,Net-(J1-Pin_1)*%
X143560000Y-107800000D03*
%TO.P,R3,2*%
%TO.N,Net-(Q1-B)*%
X148640000Y-107800000D03*
%TD*%
%TO.P,R4,1*%
%TO.N,Net-(J1-Pin_1)*%
X143660000Y-112600000D03*
%TO.P,R4,2*%
%TO.N,Net-(D2-A)*%
X148740000Y-112600000D03*
%TD*%
D17*
%TO.P,D2,1,K_1*%
%TO.N,Net-(D2-K)*%
X154300000Y-110700000D03*
D18*
%TO.P,D2,2,A_2*%
%TO.N,Net-(D2-A)*%
X156840000Y-110700000D03*
%TD*%
D11*
%TO.P,C2,1*%
%TO.N,Net-(D2-K)*%
X133617621Y-111300000D03*
D12*
%TO.P,C2,2*%
%TO.N,Net-(Q1-B)*%
X136117621Y-111300000D03*
%TD*%
D17*
%TO.P,D1,1,K_1*%
%TO.N,Net-(D1-K)*%
X154100000Y-101800000D03*
D18*
%TO.P,D1,2,A_2*%
%TO.N,Net-(D1-A)*%
X156640000Y-101800000D03*
%TD*%
%TO.N,Net-(Q2-B)*%
D19*
X143460000Y-103500000D02*
X137017621Y-103500000D01*
X137017621Y-103500000D02*
X136117621Y-102600000D01*
%TO.N,Net-(D1-K)*%
X126770000Y-101660000D02*
X132677621Y-101660000D01*
X132677621Y-101660000D02*
X133617621Y-102600000D01*
%TO.N,Net-(Q1-B)*%
X125500000Y-102910000D02*
X128390000Y-105800000D01*
X148640000Y-107800000D02*
X148640000Y-109246346D01*
X125500000Y-101660000D02*
X125500000Y-102910000D01*
X128390000Y-105800000D02*
X130617621Y-105800000D01*
X130617621Y-105800000D02*
X136117621Y-111300000D01*
X138567621Y-113750000D02*
X136117621Y-111300000D01*
X148640000Y-109246346D02*
X144136346Y-113750000D01*
X144136346Y-113750000D02*
X138567621Y-113750000D01*
%TO.N,Net-(D2-K)*%
X132617621Y-110300000D02*
X133617621Y-111300000D01*
X126970000Y-110300000D02*
X132617621Y-110300000D01*
%TO.N,Net-(D1-A)*%
X142960000Y-99600000D02*
X144760000Y-97800000D01*
X144760000Y-97800000D02*
X154000000Y-97800000D01*
X156640000Y-100440000D02*
X156640000Y-101800000D01*
X154000000Y-97800000D02*
X156640000Y-100440000D01*
%TO.N,Net-(D2-A)*%
X154940000Y-112600000D02*
X156840000Y-110700000D01*
X148740000Y-112600000D02*
X154940000Y-112600000D01*
%TO.N,GND*%
X124230000Y-101660000D02*
X124230000Y-110100000D01*
X124230000Y-110100000D02*
X124430000Y-110300000D01*
%TO.N,Net-(J1-Pin_1)*%
X143660000Y-112600000D02*
X143660000Y-107900000D01*
X147860000Y-103500000D02*
X148540000Y-103500000D01*
X143560000Y-107800000D02*
X147860000Y-103500000D01*
X148040000Y-99600000D02*
X148040000Y-103000000D01*
X148040000Y-103000000D02*
X148540000Y-103500000D01*
X143660000Y-107900000D02*
X143560000Y-107800000D01*
%TD*%
%TA.AperFunction,Conductor*%
%TO.N,GND*%
G36*
X143965810Y-97320185D02*
G01*
X144011565Y-97372989D01*
X144021509Y-97442147D01*
X143992484Y-97505703D01*
X143986452Y-97512181D01*
X143135451Y-98363181D01*
X143074128Y-98396666D01*
X143047770Y-98399500D01*
X142865514Y-98399500D01*
X142678881Y-98429059D01*
X142499163Y-98487454D01*
X142330800Y-98573240D01*
X142251073Y-98631166D01*
X142177927Y-98684310D01*
X142177925Y-98684312D01*
X142177924Y-98684312D01*
X142044312Y-98817924D01*
X142044312Y-98817925D01*
X142044310Y-98817927D01*
X141996610Y-98883579D01*
X141933240Y-98970800D01*
X141847454Y-99139163D01*
X141789059Y-99318881D01*
X141759500Y-99505513D01*
X141759500Y-99694486D01*
X141789059Y-99881118D01*
X141847454Y-100060836D01*
X141929104Y-100221082D01*
X141933240Y-100229199D01*
X142044310Y-100382073D01*
X142177927Y-100515690D01*
X142330801Y-100626760D01*
X142410347Y-100667290D01*
X142499163Y-100712545D01*
X142499165Y-100712545D01*
X142499168Y-100712547D01*
X142595497Y-100743846D01*
X142678881Y-100770940D01*
X142865514Y-100800500D01*
X142865519Y-100800500D01*
X143054486Y-100800500D01*
X143241118Y-100770940D01*
X143420832Y-100712547D01*
X143589199Y-100626760D01*
X143742073Y-100515690D01*
X143875690Y-100382073D01*
X143986760Y-100229199D01*
X144072547Y-100060832D01*
X144130940Y-99881118D01*
X144160500Y-99694486D01*
X144160500Y-99512228D01*
X144180185Y-99445189D01*
X144196819Y-99424547D01*
X145034548Y-98586819D01*
X145095871Y-98553334D01*
X145122229Y-98550500D01*
X147092375Y-98550500D01*
X147159414Y-98570185D01*
X147205169Y-98622989D01*
X147215113Y-98692147D01*
X147186088Y-98755703D01*
X147180056Y-98762181D01*
X147124312Y-98817924D01*
X147124312Y-98817925D01*
X147124310Y-98817927D01*
X147076610Y-98883579D01*
X147013240Y-98970800D01*
X146927454Y-99139163D01*
X146869059Y-99318881D01*
X146839500Y-99505513D01*
X146839500Y-99694486D01*
X146869059Y-99881118D01*
X146927454Y-100060836D01*
X147009104Y-100221082D01*
X147013240Y-100229199D01*
X147124310Y-100382073D01*
X147124312Y-100382075D01*
X147253181Y-100510944D01*
X147286666Y-100572267D01*
X147289500Y-100598625D01*
X147289500Y-102957770D01*
X147269815Y-103024809D01*
X147253181Y-103045451D01*
X143735451Y-106563181D01*
X143674128Y-106596666D01*
X143647770Y-106599500D01*
X143465514Y-106599500D01*
X143278881Y-106629059D01*
X143099163Y-106687454D01*
X142930800Y-106773240D01*
X142869907Y-106817482D01*
X142777927Y-106884310D01*
X142777925Y-106884312D01*
X142777924Y-106884312D01*
X142644312Y-107017924D01*
X142644312Y-107017925D01*
X142644310Y-107017927D01*
X142608261Y-107067544D01*
X142533240Y-107170800D01*
X142447454Y-107339163D01*
X142389059Y-107518881D01*
X142359500Y-107705513D01*
X142359500Y-107894486D01*
X142389059Y-108081118D01*
X142447454Y-108260836D01*
X142484822Y-108334174D01*
X142533240Y-108429199D01*
X142644310Y-108582073D01*
X142644312Y-108582075D01*
X142777930Y-108715693D01*
X142858384Y-108774145D01*
X142901051Y-108829475D01*
X142909500Y-108874464D01*
X142909500Y-111601374D01*
X142889815Y-111668413D01*
X142873182Y-111689055D01*
X142744309Y-111817928D01*
X142633240Y-111970800D01*
X142547454Y-112139163D01*
X142489059Y-112318881D01*
X142459500Y-112505513D01*
X142459500Y-112694486D01*
X142485098Y-112856102D01*
X142476144Y-112925395D01*
X142431148Y-112978847D01*
X142364396Y-112999487D01*
X142362625Y-112999500D01*
X138929850Y-112999500D01*
X138862811Y-112979815D01*
X138842169Y-112963181D01*
X137444094Y-111565106D01*
X137410609Y-111503783D01*
X137409302Y-111458028D01*
X137418121Y-111402352D01*
X137418121Y-111197648D01*
X137386098Y-110995466D01*
X137322841Y-110800781D01*
X137322839Y-110800778D01*
X137322839Y-110800776D01*
X137258752Y-110675000D01*
X137229908Y-110618390D01*
X137222177Y-110607749D01*
X137109592Y-110452786D01*
X136964834Y-110308028D01*
X136799234Y-110187715D01*
X136799233Y-110187714D01*
X136799231Y-110187713D01*
X136735529Y-110155255D01*
X136616844Y-110094781D01*
X136422155Y-110031522D01*
X136247616Y-110003878D01*
X136219973Y-109999500D01*
X136015269Y-109999500D01*
X135959592Y-110008318D01*
X135890299Y-109999363D01*
X135852514Y-109973526D01*
X131096042Y-105217052D01*
X131096035Y-105217046D01*
X131022350Y-105167812D01*
X131022350Y-105167813D01*
X130973112Y-105134913D01*
X130836538Y-105078343D01*
X130836528Y-105078340D01*
X130691541Y-105049500D01*
X130691539Y-105049500D01*
X128752229Y-105049500D01*
X128685190Y-105029815D01*
X128664548Y-105013181D01*
X126773549Y-103122181D01*
X126740064Y-103060858D01*
X126745048Y-102991166D01*
X126786920Y-102935233D01*
X126852384Y-102910816D01*
X126861230Y-102910500D01*
X126871004Y-102910500D01*
X126871005Y-102910499D01*
X127069127Y-102871091D01*
X127255756Y-102793786D01*
X127423718Y-102681558D01*
X127566558Y-102538718D01*
X127615408Y-102465608D01*
X127669018Y-102420805D01*
X127718509Y-102410500D01*
X132193121Y-102410500D01*
X132260160Y-102430185D01*
X132305915Y-102482989D01*
X132317121Y-102534500D01*
X132317121Y-103200001D01*
X132317122Y-103200019D01*
X132327621Y-103302796D01*
X132327622Y-103302799D01*
X132355993Y-103388416D01*
X132382807Y-103469334D01*
X132474909Y-103618656D01*
X132598965Y-103742712D01*
X132748287Y-103834814D01*
X132914824Y-103889999D01*
X133017612Y-103900500D01*
X134217629Y-103900499D01*
X134320418Y-103889999D01*
X134486955Y-103834814D01*
X134636277Y-103742712D01*
X134760333Y-103618656D01*
X134852435Y-103469334D01*
X134867047Y-103425237D01*
X134906816Y-103367796D01*
X134971332Y-103340972D01*
X135040108Y-103353286D01*
X135085069Y-103391358D01*
X135125653Y-103447217D01*
X135270407Y-103591971D01*
X135425370Y-103704556D01*
X135436011Y-103712287D01*
X135552228Y-103771503D01*
X135618397Y-103805218D01*
X135618399Y-103805218D01*
X135618402Y-103805220D01*
X135709477Y-103834812D01*
X135813086Y-103868477D01*
X135897185Y-103881797D01*
X136015269Y-103900500D01*
X136015270Y-103900500D01*
X136219971Y-103900500D01*
X136219973Y-103900500D01*
X136275648Y-103891681D01*
X136344940Y-103900635D01*
X136382724Y-103926470D01*
X136539205Y-104082951D01*
X136539206Y-104082952D01*
X136662119Y-104165080D01*
X136662132Y-104165087D01*
X136798703Y-104221656D01*
X136798708Y-104221658D01*
X136798712Y-104221658D01*
X136798713Y-104221659D01*
X136943700Y-104250500D01*
X136943703Y-104250500D01*
X137091538Y-104250500D01*
X142461375Y-104250500D01*
X142528414Y-104270185D01*
X142549056Y-104286819D01*
X142677927Y-104415690D01*
X142830801Y-104526760D01*
X142900344Y-104562194D01*
X142999163Y-104612545D01*
X142999165Y-104612545D01*
X142999168Y-104612547D01*
X143095497Y-104643846D01*
X143178881Y-104670940D01*
X143365514Y-104700500D01*
X143365519Y-104700500D01*
X143554486Y-104700500D01*
X143741118Y-104670940D01*
X143920832Y-104612547D01*
X144089199Y-104526760D01*
X144242073Y-104415690D01*
X144375690Y-104282073D01*
X144486760Y-104129199D01*
X144572547Y-103960832D01*
X144630940Y-103781118D01*
X144641842Y-103712284D01*
X144660500Y-103594486D01*
X144660500Y-103405513D01*
X144630940Y-103218881D01*
X144601707Y-103128913D01*
X144572547Y-103039168D01*
X144572545Y-103039165D01*
X144572545Y-103039163D01*
X144516763Y-102929685D01*
X144486760Y-102870801D01*
X144375690Y-102717927D01*
X144242073Y-102584310D01*
X144089199Y-102473240D01*
X144058983Y-102457844D01*
X143920836Y-102387454D01*
X143741118Y-102329059D01*
X143554486Y-102299500D01*
X143554481Y-102299500D01*
X143365519Y-102299500D01*
X143365514Y-102299500D01*
X143178881Y-102329059D01*
X142999163Y-102387454D01*
X142830800Y-102473240D01*
X142797206Y-102497648D01*
X142677927Y-102584310D01*
X142677925Y-102584312D01*
X142677924Y-102584312D01*
X142549056Y-102713181D01*
X142487733Y-102746666D01*
X142461375Y-102749500D01*
X137542121Y-102749500D01*
X137475082Y-102729815D01*
X137429327Y-102677011D01*
X137418121Y-102625500D01*
X137418121Y-102497648D01*
X137386098Y-102295465D01*
X137322839Y-102100776D01*
X137271486Y-101999992D01*
X137229908Y-101918390D01*
X137181170Y-101851307D01*
X137109592Y-101752786D01*
X136964834Y-101608028D01*
X136799234Y-101487715D01*
X136799233Y-101487714D01*
X136799231Y-101487713D01*
X136685463Y-101429745D01*
X136616844Y-101394781D01*
X136422155Y-101331522D01*
X136247616Y-101303878D01*
X136219973Y-101299500D01*
X136015269Y-101299500D01*
X135990950Y-101303351D01*
X135813086Y-101331522D01*
X135618397Y-101394781D01*
X135436007Y-101487715D01*
X135270407Y-101608028D01*
X135125653Y-101752782D01*
X135125652Y-101752784D01*
X135085068Y-101808642D01*
X135029738Y-101851307D01*
X134960124Y-101857285D01*
X134898330Y-101824678D01*
X134867046Y-101774760D01*
X134852435Y-101730666D01*
X134760333Y-101581344D01*
X134636277Y-101457288D01*
X134486955Y-101365186D01*
X134320418Y-101310001D01*
X134320416Y-101310000D01*
X134217637Y-101299500D01*
X134217630Y-101299500D01*
X133429851Y-101299500D01*
X133362812Y-101279815D01*
X133342170Y-101263181D01*
X133156042Y-101077052D01*
X133156035Y-101077046D01*
X133075075Y-101022951D01*
X133075075Y-101022952D01*
X133033112Y-100994913D01*
X132896538Y-100938343D01*
X132896528Y-100938340D01*
X132751541Y-100909500D01*
X132751539Y-100909500D01*
X127718509Y-100909500D01*
X127651470Y-100889815D01*
X127615408Y-100854392D01*
X127566558Y-100781282D01*
X127566556Y-100781279D01*
X127423718Y-100638441D01*
X127255762Y-100526217D01*
X127255752Y-100526212D01*
X127069127Y-100448909D01*
X127069119Y-100448907D01*
X126871007Y-100409500D01*
X126871003Y-100409500D01*
X126668997Y-100409500D01*
X126668992Y-100409500D01*
X126470880Y-100448907D01*
X126470872Y-100448909D01*
X126284244Y-100526213D01*
X126203891Y-100579904D01*
X126137213Y-100600782D01*
X126069833Y-100582297D01*
X126066109Y-100579904D01*
X126054679Y-100572267D01*
X126025563Y-100552812D01*
X125985755Y-100526213D01*
X125799127Y-100448909D01*
X125799119Y-100448907D01*
X125601007Y-100409500D01*
X125601003Y-100409500D01*
X125398997Y-100409500D01*
X125398992Y-100409500D01*
X125200880Y-100448907D01*
X125200868Y-100448910D01*
X125119661Y-100482547D01*
X125050191Y-100490016D01*
X125005140Y-100470405D01*
X125004872Y-100470897D01*
X124999374Y-100467894D01*
X124997895Y-100467251D01*
X124997086Y-100466645D01*
X124862379Y-100416403D01*
X124862372Y-100416401D01*
X124802844Y-100410000D01*
X124480000Y-100410000D01*
X124480000Y-101294134D01*
X124477617Y-101318326D01*
X124474500Y-101333995D01*
X124474500Y-101374170D01*
X124460255Y-101359925D01*
X124374745Y-101310556D01*
X124279370Y-101285000D01*
X124180630Y-101285000D01*
X124085255Y-101310556D01*
X123999745Y-101359925D01*
X123980000Y-101379670D01*
X123980000Y-100410000D01*
X123657155Y-100410000D01*
X123597627Y-100416401D01*
X123597620Y-100416403D01*
X123462913Y-100466645D01*
X123462906Y-100466649D01*
X123347812Y-100552809D01*
X123347809Y-100552812D01*
X123261649Y-100667906D01*
X123261645Y-100667913D01*
X123211403Y-100802620D01*
X123211401Y-100802627D01*
X123205000Y-100862155D01*
X123205000Y-101410000D01*
X123949670Y-101410000D01*
X123929925Y-101429745D01*
X123880556Y-101515255D01*
X123855000Y-101610630D01*
X123855000Y-101709370D01*
X123880556Y-101804745D01*
X123929925Y-101890255D01*
X123949670Y-101910000D01*
X123205000Y-101910000D01*
X123205000Y-102457844D01*
X123211401Y-102517372D01*
X123211403Y-102517379D01*
X123261645Y-102652086D01*
X123261649Y-102652093D01*
X123347809Y-102767187D01*
X123347812Y-102767190D01*
X123462906Y-102853350D01*
X123462913Y-102853354D01*
X123597620Y-102903596D01*
X123597627Y-102903598D01*
X123657155Y-102909999D01*
X123657172Y-102910000D01*
X123980000Y-102910000D01*
X123980000Y-101940330D01*
X123999745Y-101960075D01*
X124085255Y-102009444D01*
X124180630Y-102035000D01*
X124279370Y-102035000D01*
X124374745Y-102009444D01*
X124460255Y-101960075D01*
X124474500Y-101945830D01*
X124474500Y-101986002D01*
X124477617Y-102001671D01*
X124480000Y-102025865D01*
X124480000Y-102910000D01*
X124633033Y-102910000D01*
X124700072Y-102929685D01*
X124745827Y-102982489D01*
X124754650Y-103009809D01*
X124778340Y-103128905D01*
X124778343Y-103128917D01*
X124834914Y-103265492D01*
X124834915Y-103265494D01*
X124834916Y-103265495D01*
X124859840Y-103302797D01*
X124867812Y-103314727D01*
X124867813Y-103314730D01*
X124917046Y-103388414D01*
X124917052Y-103388421D01*
X127807049Y-106278416D01*
X127911584Y-106382951D01*
X127911585Y-106382952D01*
X128034498Y-106465080D01*
X128034511Y-106465087D01*
X128171082Y-106521656D01*
X128171087Y-106521658D01*
X128171091Y-106521658D01*
X128171092Y-106521659D01*
X128316079Y-106550500D01*
X128316082Y-106550500D01*
X130255391Y-106550500D01*
X130322430Y-106570185D01*
X130343072Y-106586819D01*
X132017089Y-108260836D01*
X133544073Y-109787819D01*
X133577558Y-109849142D01*
X133572574Y-109918834D01*
X133530702Y-109974767D01*
X133465238Y-109999184D01*
X133456392Y-109999500D01*
X133429851Y-109999500D01*
X133362812Y-109979815D01*
X133342170Y-109963181D01*
X133096042Y-109717052D01*
X133096035Y-109717046D01*
X133022350Y-109667812D01*
X133022350Y-109667813D01*
X132973112Y-109634913D01*
X132836538Y-109578343D01*
X132836528Y-109578340D01*
X132691541Y-109549500D01*
X132691539Y-109549500D01*
X128111977Y-109549500D01*
X128044938Y-109529815D01*
X127999183Y-109477011D01*
X127991733Y-109449865D01*
X127990876Y-109450068D01*
X127989092Y-109442520D01*
X127989067Y-109442454D01*
X127938796Y-109307669D01*
X127938795Y-109307668D01*
X127938793Y-109307664D01*
X127852547Y-109192455D01*
X127852544Y-109192452D01*
X127737335Y-109106206D01*
X127737328Y-109106202D01*
X127602482Y-109055908D01*
X127602483Y-109055908D01*
X127542883Y-109049501D01*
X127542881Y-109049500D01*
X127542873Y-109049500D01*
X127542864Y-109049500D01*
X126397129Y-109049500D01*
X126397123Y-109049501D01*
X126337516Y-109055908D01*
X126202672Y-109106202D01*
X126202665Y-109106206D01*
X126201556Y-109107037D01*
X126200258Y-109107520D01*
X126194887Y-109110454D01*
X126194465Y-109109681D01*
X126136090Y-109131449D01*
X126079800Y-109122325D01*
X125999127Y-109088909D01*
X125999119Y-109088907D01*
X125801007Y-109049500D01*
X125801003Y-109049500D01*
X125598997Y-109049500D01*
X125598992Y-109049500D01*
X125400880Y-109088907D01*
X125400872Y-109088909D01*
X125214243Y-109166214D01*
X125133439Y-109220204D01*
X125066761Y-109241081D01*
X124999382Y-109222595D01*
X124995659Y-109220203D01*
X124915526Y-109166659D01*
X124915513Y-109166652D01*
X124728984Y-109089390D01*
X124728977Y-109089388D01*
X124680000Y-109079645D01*
X124680000Y-109934134D01*
X124677617Y-109958326D01*
X124674500Y-109973995D01*
X124674500Y-110014170D01*
X124660255Y-109999925D01*
X124574745Y-109950556D01*
X124479370Y-109925000D01*
X124380630Y-109925000D01*
X124285255Y-109950556D01*
X124199745Y-109999925D01*
X124180000Y-110019670D01*
X124180000Y-109079646D01*
X124179999Y-109079645D01*
X124131022Y-109089388D01*
X124131015Y-109089390D01*
X123944486Y-109166652D01*
X123944473Y-109166659D01*
X123776600Y-109278829D01*
X123776596Y-109278832D01*
X123633832Y-109421596D01*
X123633829Y-109421600D01*
X123521659Y-109589473D01*
X123521652Y-109589486D01*
X123444390Y-109776016D01*
X123444387Y-109776025D01*
X123405000Y-109974041D01*
X123405000Y-110050000D01*
X124149670Y-110050000D01*
X124129925Y-110069745D01*
X124080556Y-110155255D01*
X124055000Y-110250630D01*
X124055000Y-110349370D01*
X124080556Y-110444745D01*
X124129925Y-110530255D01*
X124149670Y-110550000D01*
X123405000Y-110550000D01*
X123405000Y-110625958D01*
X123444387Y-110823974D01*
X123444390Y-110823983D01*
X123521652Y-111010513D01*
X123521659Y-111010526D01*
X123633829Y-111178399D01*
X123633832Y-111178403D01*
X123776596Y-111321167D01*
X123776600Y-111321170D01*
X123944473Y-111433340D01*
X123944486Y-111433347D01*
X124131016Y-111510609D01*
X124131025Y-111510612D01*
X124180000Y-111520353D01*
X124180000Y-110580330D01*
X124199745Y-110600075D01*
X124285255Y-110649444D01*
X124380630Y-110675000D01*
X124479370Y-110675000D01*
X124574745Y-110649444D01*
X124660255Y-110600075D01*
X124674500Y-110585830D01*
X124674500Y-110626002D01*
X124677617Y-110641671D01*
X124680000Y-110665865D01*
X124680000Y-111520352D01*
X124728974Y-111510612D01*
X124728983Y-111510609D01*
X124915515Y-111433346D01*
X124915518Y-111433344D01*
X124995658Y-111379796D01*
X125062335Y-111358917D01*
X125129716Y-111377401D01*
X125133422Y-111379783D01*
X125214244Y-111433786D01*
X125400873Y-111511091D01*
X125566777Y-111544091D01*
X125598992Y-111550499D01*
X125598996Y-111550500D01*
X125598997Y-111550500D01*
X125801004Y-111550500D01*
X125801005Y-111550499D01*
X125999127Y-111511091D01*
X126000284Y-111510612D01*
X126042879Y-111492968D01*
X126079798Y-111477674D01*
X126149267Y-111470205D01*
X126194658Y-111489962D01*
X126194886Y-111489546D01*
X126199540Y-111492087D01*
X126201562Y-111492967D01*
X126202669Y-111493796D01*
X126202670Y-111493796D01*
X126202671Y-111493797D01*
X126337517Y-111544091D01*
X126337516Y-111544091D01*
X126344444Y-111544835D01*
X126397127Y-111550500D01*
X127542872Y-111550499D01*
X127602483Y-111544091D01*
X127737331Y-111493796D01*
X127852546Y-111407546D01*
X127938796Y-111292331D01*
X127989091Y-111157483D01*
X127989091Y-111157481D01*
X127990874Y-111149938D01*
X127993146Y-111150474D01*
X128015429Y-111096688D01*
X128072823Y-111056843D01*
X128111976Y-111050500D01*
X132193121Y-111050500D01*
X132260160Y-111070185D01*
X132305915Y-111122989D01*
X132317121Y-111174500D01*
X132317121Y-111900001D01*
X132317122Y-111900019D01*
X132327621Y-112002796D01*
X132327622Y-112002799D01*
X132364430Y-112113876D01*
X132382807Y-112169334D01*
X132474909Y-112318656D01*
X132598965Y-112442712D01*
X132748287Y-112534814D01*
X132914824Y-112589999D01*
X133017612Y-112600500D01*
X134217629Y-112600499D01*
X134320418Y-112589999D01*
X134486955Y-112534814D01*
X134636277Y-112442712D01*
X134760333Y-112318656D01*
X134852435Y-112169334D01*
X134867047Y-112125237D01*
X134906816Y-112067796D01*
X134971332Y-112040972D01*
X135040108Y-112053286D01*
X135085069Y-112091358D01*
X135125653Y-112147217D01*
X135270407Y-112291971D01*
X135425370Y-112404556D01*
X135436011Y-112412287D01*
X135552228Y-112471503D01*
X135618397Y-112505218D01*
X135618399Y-112505218D01*
X135618402Y-112505220D01*
X135709477Y-112534812D01*
X135813086Y-112568477D01*
X135897185Y-112581797D01*
X136015269Y-112600500D01*
X136015270Y-112600500D01*
X136219971Y-112600500D01*
X136219973Y-112600500D01*
X136275648Y-112591681D01*
X136344940Y-112600635D01*
X136382727Y-112626473D01*
X137984670Y-114228416D01*
X138089204Y-114332950D01*
X138089206Y-114332952D01*
X138212119Y-114415080D01*
X138212132Y-114415087D01*
X138348703Y-114471656D01*
X138348708Y-114471658D01*
X138348712Y-114471658D01*
X138348713Y-114471659D01*
X138493700Y-114500500D01*
X138493703Y-114500500D01*
X144210266Y-114500500D01*
X144307808Y-114481096D01*
X144355259Y-114471658D01*
X144491841Y-114415084D01*
X144541075Y-114382186D01*
X144614762Y-114332952D01*
X146442201Y-112505513D01*
X147539500Y-112505513D01*
X147539500Y-112694486D01*
X147569059Y-112881118D01*
X147627454Y-113060836D01*
X147713239Y-113229198D01*
X147713240Y-113229199D01*
X147824310Y-113382073D01*
X147957927Y-113515690D01*
X148110801Y-113626760D01*
X148190347Y-113667290D01*
X148279163Y-113712545D01*
X148279165Y-113712545D01*
X148279168Y-113712547D01*
X148375497Y-113743846D01*
X148458881Y-113770940D01*
X148645514Y-113800500D01*
X148645519Y-113800500D01*
X148834486Y-113800500D01*
X149021118Y-113770940D01*
X149200832Y-113712547D01*
X149369199Y-113626760D01*
X149522073Y-113515690D01*
X149650944Y-113386819D01*
X149712267Y-113353334D01*
X149738625Y-113350500D01*
X155013920Y-113350500D01*
X155111462Y-113331096D01*
X155158913Y-113321658D01*
X155295495Y-113265084D01*
X155349201Y-113229199D01*
X155349201Y-113229198D01*
X155349203Y-113229198D01*
X155383808Y-113206075D01*
X155418416Y-113182952D01*
X156487492Y-112113874D01*
X156548813Y-112080391D01*
X156594565Y-112079084D01*
X156729778Y-112100500D01*
X156729780Y-112100500D01*
X156950221Y-112100500D01*
X156950222Y-112100500D01*
X157167951Y-112066015D01*
X157377606Y-111997895D01*
X157574022Y-111897815D01*
X157752365Y-111768242D01*
X157908242Y-111612365D01*
X158037815Y-111434022D01*
X158137895Y-111237606D01*
X158206015Y-111027951D01*
X158240500Y-110810222D01*
X158240500Y-110589778D01*
X158206015Y-110372049D01*
X158137895Y-110162394D01*
X158137895Y-110162393D01*
X158090687Y-110069745D01*
X158037815Y-109965978D01*
X157979501Y-109885715D01*
X157908247Y-109787641D01*
X157908243Y-109787636D01*
X157752361Y-109631754D01*
X157752358Y-109631752D01*
X157574024Y-109502186D01*
X157377606Y-109402104D01*
X157377603Y-109402103D01*
X157167952Y-109333985D01*
X157001811Y-109307671D01*
X156950222Y-109299500D01*
X156729778Y-109299500D01*
X156678233Y-109307664D01*
X156512047Y-109333985D01*
X156302396Y-109402103D01*
X156302393Y-109402104D01*
X156105976Y-109502186D01*
X155927641Y-109631752D01*
X155927639Y-109631754D01*
X155877463Y-109681929D01*
X155816140Y-109715413D01*
X155746448Y-109710428D01*
X155690515Y-109668557D01*
X155673601Y-109637580D01*
X155643797Y-109557671D01*
X155643793Y-109557664D01*
X155557547Y-109442455D01*
X155557544Y-109442452D01*
X155442335Y-109356206D01*
X155442328Y-109356202D01*
X155307482Y-109305908D01*
X155307483Y-109305908D01*
X155247883Y-109299501D01*
X155247881Y-109299500D01*
X155247873Y-109299500D01*
X155247864Y-109299500D01*
X153352129Y-109299500D01*
X153352123Y-109299501D01*
X153292516Y-109305908D01*
X153157671Y-109356202D01*
X153157664Y-109356206D01*
X153042455Y-109442452D01*
X153042452Y-109442455D01*
X152956206Y-109557664D01*
X152956202Y-109557671D01*
X152905908Y-109692517D01*
X152899501Y-109752116D01*
X152899500Y-109752135D01*
X152899500Y-111647870D01*
X152899501Y-111647876D01*
X152906421Y-111712247D01*
X152894014Y-111781006D01*
X152846403Y-111832143D01*
X152783131Y-111849500D01*
X149738625Y-111849500D01*
X149671586Y-111829815D01*
X149650944Y-111813181D01*
X149522075Y-111684312D01*
X149522073Y-111684310D01*
X149369199Y-111573240D01*
X149353235Y-111565106D01*
X149200836Y-111487454D01*
X149021118Y-111429059D01*
X148834486Y-111399500D01*
X148834481Y-111399500D01*
X148645519Y-111399500D01*
X148645514Y-111399500D01*
X148458881Y-111429059D01*
X148279163Y-111487454D01*
X148110800Y-111573240D01*
X148023579Y-111636610D01*
X147957927Y-111684310D01*
X147957925Y-111684312D01*
X147957924Y-111684312D01*
X147824312Y-111817924D01*
X147824312Y-111817925D01*
X147824310Y-111817927D01*
X147801371Y-111849500D01*
X147713240Y-111970800D01*
X147627454Y-112139163D01*
X147569059Y-112318881D01*
X147539500Y-112505513D01*
X146442201Y-112505513D01*
X146944915Y-112002799D01*
X149222947Y-109724766D01*
X149222950Y-109724763D01*
X149222949Y-109724763D01*
X149222952Y-109724761D01*
X149285094Y-109631758D01*
X149305084Y-109601841D01*
X149340943Y-109515270D01*
X149346363Y-109502186D01*
X149361657Y-109465262D01*
X149361659Y-109465258D01*
X149390500Y-109320263D01*
X149390500Y-109172428D01*
X149390500Y-108798625D01*
X149410185Y-108731586D01*
X149426819Y-108710944D01*
X149490500Y-108647263D01*
X149555690Y-108582073D01*
X149666760Y-108429199D01*
X149752547Y-108260832D01*
X149810940Y-108081118D01*
X149840500Y-107894486D01*
X149840500Y-107705513D01*
X149810940Y-107518881D01*
X149752545Y-107339163D01*
X149705492Y-107246818D01*
X149666760Y-107170801D01*
X149555690Y-107017927D01*
X149422073Y-106884310D01*
X149269199Y-106773240D01*
X149239059Y-106757883D01*
X149100836Y-106687454D01*
X148921118Y-106629059D01*
X148734486Y-106599500D01*
X148734481Y-106599500D01*
X148545519Y-106599500D01*
X148545514Y-106599500D01*
X148358881Y-106629059D01*
X148179163Y-106687454D01*
X148010800Y-106773240D01*
X147949907Y-106817482D01*
X147857927Y-106884310D01*
X147857925Y-106884312D01*
X147857924Y-106884312D01*
X147724312Y-107017924D01*
X147724312Y-107017925D01*
X147724310Y-107017927D01*
X147688261Y-107067544D01*
X147613240Y-107170800D01*
X147527454Y-107339163D01*
X147469059Y-107518881D01*
X147439500Y-107705513D01*
X147439500Y-107894486D01*
X147469059Y-108081118D01*
X147527454Y-108260836D01*
X147564822Y-108334174D01*
X147613240Y-108429199D01*
X147724310Y-108582073D01*
X147724312Y-108582075D01*
X147853181Y-108710944D01*
X147886666Y-108772267D01*
X147889500Y-108798625D01*
X147889500Y-108884115D01*
X147869815Y-108951154D01*
X147853181Y-108971796D01*
X144859871Y-111965105D01*
X144798548Y-111998590D01*
X144728856Y-111993606D01*
X144672923Y-111951734D01*
X144671872Y-111950310D01*
X144575690Y-111817927D01*
X144446818Y-111689055D01*
X144413334Y-111627732D01*
X144410500Y-111601374D01*
X144410500Y-108698625D01*
X144430185Y-108631586D01*
X144446819Y-108610944D01*
X144475690Y-108582073D01*
X144586760Y-108429199D01*
X144672547Y-108260832D01*
X144730940Y-108081118D01*
X144760500Y-107894486D01*
X144760500Y-107712228D01*
X144780185Y-107645189D01*
X144796819Y-107624547D01*
X146142950Y-106278416D01*
X147836370Y-104584995D01*
X147897691Y-104551512D01*
X147967383Y-104556496D01*
X147980340Y-104562191D01*
X148016416Y-104580573D01*
X148079161Y-104612544D01*
X148079164Y-104612544D01*
X148079168Y-104612547D01*
X148201982Y-104652452D01*
X148258881Y-104670940D01*
X148445514Y-104700500D01*
X148445519Y-104700500D01*
X148634486Y-104700500D01*
X148821118Y-104670940D01*
X149000832Y-104612547D01*
X149169199Y-104526760D01*
X149322073Y-104415690D01*
X149455690Y-104282073D01*
X149566760Y-104129199D01*
X149652547Y-103960832D01*
X149710940Y-103781118D01*
X149721842Y-103712284D01*
X149740500Y-103594486D01*
X149740500Y-103405513D01*
X149710940Y-103218881D01*
X149681707Y-103128913D01*
X149652547Y-103039168D01*
X149652545Y-103039165D01*
X149652545Y-103039163D01*
X149596763Y-102929685D01*
X149566760Y-102870801D01*
X149455690Y-102717927D01*
X149322073Y-102584310D01*
X149169199Y-102473240D01*
X149138983Y-102457844D01*
X149000836Y-102387454D01*
X148876181Y-102346951D01*
X148818506Y-102307513D01*
X148791308Y-102243154D01*
X148790500Y-102229020D01*
X148790500Y-100598625D01*
X148810185Y-100531586D01*
X148826819Y-100510944D01*
X148888856Y-100448907D01*
X148955690Y-100382073D01*
X149066760Y-100229199D01*
X149152547Y-100060832D01*
X149210940Y-99881118D01*
X149240500Y-99694486D01*
X149240500Y-99505513D01*
X149210940Y-99318881D01*
X149152545Y-99139163D01*
X149066759Y-98970800D01*
X148955690Y-98817927D01*
X148899944Y-98762181D01*
X148866459Y-98700858D01*
X148871443Y-98631166D01*
X148913315Y-98575233D01*
X148978779Y-98550816D01*
X148987625Y-98550500D01*
X153637770Y-98550500D01*
X153704809Y-98570185D01*
X153725451Y-98586819D01*
X155418504Y-100279872D01*
X155451989Y-100341195D01*
X155447005Y-100410887D01*
X155405133Y-100466820D01*
X155339669Y-100491237D01*
X155271396Y-100476385D01*
X155256512Y-100466820D01*
X155242330Y-100456203D01*
X155242328Y-100456202D01*
X155107482Y-100405908D01*
X155107483Y-100405908D01*
X155047883Y-100399501D01*
X155047881Y-100399500D01*
X155047873Y-100399500D01*
X155047864Y-100399500D01*
X153152129Y-100399500D01*
X153152123Y-100399501D01*
X153092516Y-100405908D01*
X152957671Y-100456202D01*
X152957664Y-100456206D01*
X152842455Y-100542452D01*
X152842452Y-100542455D01*
X152756206Y-100657664D01*
X152756202Y-100657671D01*
X152705908Y-100792517D01*
X152699501Y-100852116D01*
X152699500Y-100852135D01*
X152699500Y-102747870D01*
X152699501Y-102747876D01*
X152705908Y-102807483D01*
X152756202Y-102942328D01*
X152756206Y-102942335D01*
X152842452Y-103057544D01*
X152842455Y-103057547D01*
X152957664Y-103143793D01*
X152957671Y-103143797D01*
X153092517Y-103194091D01*
X153092516Y-103194091D01*
X153099444Y-103194835D01*
X153152127Y-103200500D01*
X155047872Y-103200499D01*
X155107483Y-103194091D01*
X155242331Y-103143796D01*
X155357546Y-103057546D01*
X155443796Y-102942331D01*
X155443798Y-102942326D01*
X155473601Y-102862420D01*
X155515471Y-102806486D01*
X155580936Y-102782068D01*
X155649209Y-102796919D01*
X155677464Y-102818071D01*
X155727636Y-102868243D01*
X155727641Y-102868247D01*
X155829603Y-102942326D01*
X155905978Y-102997815D01*
X156029706Y-103060858D01*
X156102393Y-103097895D01*
X156102396Y-103097896D01*
X156197834Y-103128905D01*
X156312049Y-103166015D01*
X156529778Y-103200500D01*
X156529779Y-103200500D01*
X156750221Y-103200500D01*
X156750222Y-103200500D01*
X156967951Y-103166015D01*
X157177606Y-103097895D01*
X157374022Y-102997815D01*
X157552365Y-102868242D01*
X157708242Y-102712365D01*
X157837815Y-102534022D01*
X157937895Y-102337606D01*
X158006015Y-102127951D01*
X158040500Y-101910222D01*
X158040500Y-101689778D01*
X158006015Y-101472049D01*
X157953363Y-101310000D01*
X157937896Y-101262396D01*
X157937895Y-101262393D01*
X157903237Y-101194375D01*
X157837815Y-101065978D01*
X157779501Y-100985715D01*
X157708247Y-100887641D01*
X157708243Y-100887636D01*
X157552367Y-100731760D01*
X157552365Y-100731758D01*
X157441613Y-100651291D01*
X157398949Y-100595963D01*
X157390500Y-100550975D01*
X157390500Y-100366079D01*
X157361659Y-100221092D01*
X157361658Y-100221091D01*
X157361658Y-100221087D01*
X157305084Y-100084505D01*
X157250533Y-100002863D01*
X157236742Y-99982223D01*
X157222954Y-99961586D01*
X154773549Y-97512181D01*
X154740064Y-97450858D01*
X154745048Y-97381166D01*
X154786920Y-97325233D01*
X154852384Y-97300816D01*
X154861230Y-97300500D01*
X158975500Y-97300500D01*
X159042539Y-97320185D01*
X159088294Y-97372989D01*
X159099500Y-97424500D01*
X159099500Y-114775500D01*
X159079815Y-114842539D01*
X159027011Y-114888294D01*
X158975500Y-114899500D01*
X115624500Y-114899500D01*
X115557461Y-114879815D01*
X115511706Y-114827011D01*
X115500500Y-114775500D01*
X115500500Y-104962135D01*
X116249500Y-104962135D01*
X116249500Y-106757870D01*
X116249501Y-106757876D01*
X116255908Y-106817483D01*
X116306202Y-106952328D01*
X116306206Y-106952335D01*
X116392452Y-107067544D01*
X116392455Y-107067547D01*
X116507664Y-107153793D01*
X116507671Y-107153797D01*
X116552618Y-107170561D01*
X116642517Y-107204091D01*
X116702127Y-107210500D01*
X116712685Y-107210499D01*
X116779723Y-107230179D01*
X116800372Y-107246818D01*
X117470591Y-107917037D01*
X117407007Y-107934075D01*
X117292993Y-107999901D01*
X117199901Y-108092993D01*
X117134075Y-108207007D01*
X117117037Y-108270591D01*
X116484728Y-107638282D01*
X116484727Y-107638282D01*
X116445380Y-107692439D01*
X116348904Y-107881782D01*
X116283242Y-108083869D01*
X116283242Y-108083872D01*
X116250000Y-108293753D01*
X116250000Y-108506246D01*
X116283242Y-108716127D01*
X116283242Y-108716130D01*
X116348904Y-108918217D01*
X116445375Y-109107550D01*
X116484728Y-109161716D01*
X117117037Y-108529408D01*
X117134075Y-108592993D01*
X117199901Y-108707007D01*
X117292993Y-108800099D01*
X117407007Y-108865925D01*
X117470590Y-108882962D01*
X116838282Y-109515269D01*
X116838282Y-109515270D01*
X116892449Y-109554624D01*
X117081782Y-109651095D01*
X117283870Y-109716757D01*
X117493754Y-109750000D01*
X117706246Y-109750000D01*
X117916127Y-109716757D01*
X117916130Y-109716757D01*
X118118217Y-109651095D01*
X118307554Y-109554622D01*
X118361716Y-109515270D01*
X118361717Y-109515270D01*
X117729408Y-108882962D01*
X117792993Y-108865925D01*
X117907007Y-108800099D01*
X118000099Y-108707007D01*
X118065925Y-108592993D01*
X118082962Y-108529409D01*
X118715270Y-109161717D01*
X118715270Y-109161716D01*
X118754622Y-109107554D01*
X118851095Y-108918217D01*
X118916757Y-108716130D01*
X118916757Y-108716127D01*
X118950000Y-108506246D01*
X118950000Y-108293753D01*
X118916757Y-108083872D01*
X118916757Y-108083869D01*
X118851095Y-107881782D01*
X118754624Y-107692449D01*
X118715270Y-107638282D01*
X118715269Y-107638282D01*
X118082962Y-108270590D01*
X118065925Y-108207007D01*
X118000099Y-108092993D01*
X117907007Y-107999901D01*
X117792993Y-107934075D01*
X117729409Y-107917037D01*
X118399627Y-107246818D01*
X118460950Y-107213333D01*
X118487307Y-107210499D01*
X118497872Y-107210499D01*
X118557483Y-107204091D01*
X118692331Y-107153796D01*
X118807546Y-107067546D01*
X118893796Y-106952331D01*
X118944091Y-106817483D01*
X118950500Y-106757873D01*
X118950499Y-104962128D01*
X118944091Y-104902517D01*
X118893796Y-104767669D01*
X118893795Y-104767668D01*
X118893793Y-104767664D01*
X118807547Y-104652455D01*
X118807544Y-104652452D01*
X118692335Y-104566206D01*
X118692328Y-104566202D01*
X118557482Y-104515908D01*
X118557483Y-104515908D01*
X118497883Y-104509501D01*
X118497881Y-104509500D01*
X118497873Y-104509500D01*
X118497864Y-104509500D01*
X116702129Y-104509500D01*
X116702123Y-104509501D01*
X116642516Y-104515908D01*
X116507671Y-104566202D01*
X116507664Y-104566206D01*
X116392455Y-104652452D01*
X116392452Y-104652455D01*
X116306206Y-104767664D01*
X116306202Y-104767671D01*
X116255908Y-104902517D01*
X116249501Y-104962116D01*
X116249501Y-104962123D01*
X116249500Y-104962135D01*
X115500500Y-104962135D01*
X115500500Y-97424500D01*
X115520185Y-97357461D01*
X115572989Y-97311706D01*
X115624500Y-97300500D01*
X143898771Y-97300500D01*
X143965810Y-97320185D01*
G37*
%TD.AperFunction*%
%TD*%
M02*
