%TF.GenerationSoftware,KiCad,Pcbnew,10.0.5*%
%TF.CreationDate,2026-09-28T19:44:01+05:30*%
%TF.ProjectId,LED Flip Flop,4c454420-466c-4697-9020-466c6f702e6b,rev?*%
%TF.SameCoordinates,Original*%
%TF.FileFunction,Copper,L2,Bot*%
%TF.FilePolarity,Positive*%
%FSLAX46Y46*%
G04 Gerber Fmt 4.6, Leading zero omitted, Abs format (unit mm)*
G04 Created by KiCad (PCBNEW 10.0.5) date 2026-09-28 19:44:01*
%MOMM*%
%LPD*%
G01*
G04 APERTURE LIST*
G04 Aperture macros list*
%AMRoundRect*
0 Rectangle with rounded corners*
0 $1 Rounding radius*
0 $2 $3 $4 $5 $6 $7 $8 $9 X,Y pos of 4 corners*
0 Add a 4 corners polygon primitive as box body*
4,1,4,$2,$3,$4,$5,$6,$7,$8,$9,$2,$3,0*
0 Add four circle primitives for the rounded corners*
1,1,$1+$1,$2,$3*
1,1,$1+$1,$4,$5*
1,1,$1+$1,$6,$7*
1,1,$1+$1,$8,$9*
0 Add four rect primitives between the rounded corners*
20,1,$1+$1,$2,$3,$4,$5,0*
20,1,$1+$1,$4,$5,$6,$7,0*
20,1,$1+$1,$6,$7,$8,$9,0*
20,1,$1+$1,$8,$9,$2,$3,0*%
G04 Aperture macros list end*
%TA.AperFunction,ComponentPad*%
%ADD10C,1.400000*%
%TD*%
%TA.AperFunction,ComponentPad*%
%ADD11RoundRect,0.250000X-0.550000X-0.550000X0.550000X-0.550000X0.550000X0.550000X-0.550000X0.550000X0*%
%TD*%
%TA.AperFunction,ComponentPad*%
%ADD12C,1.600000*%
%TD*%
%TA.AperFunction,ComponentPad*%
%ADD13R,1.050000X1.500000*%
%TD*%
%TA.AperFunction,ComponentPad*%
%ADD14O,1.050000X1.500000*%
%TD*%
%TA.AperFunction,ComponentPad*%
%ADD15R,1.700000X1.700000*%
%TD*%
%TA.AperFunction,ComponentPad*%
%ADD16C,1.700000*%
%TD*%
%TA.AperFunction,ComponentPad*%
%ADD17R,1.800000X1.800000*%
%TD*%
%TA.AperFunction,ComponentPad*%
%ADD18C,1.800000*%
%TD*%
%TA.AperFunction,Conductor*%
%ADD19C,0.500000*%
%TD*%
%TA.AperFunction,Conductor*%
%ADD20C,1.000000*%
%TD*%
G04 APERTURE END LIST*
D10*
%TO.P,R2,1*%
%TO.N,Net-(J1-Pin_1)*%
X148540000Y-103500000D03*
%TO.P,R2,2*%
%TO.N,Net-(Q2-B)*%
X143460000Y-103500000D03*
%TD*%
D11*
%TO.P,C1,1*%
%TO.N,Net-(D1-K)*%
X133617621Y-102600000D03*
D12*
%TO.P,C1,2*%
%TO.N,Net-(Q2-B)*%
X136117621Y-102600000D03*
%TD*%
D13*
%TO.P,Q1,1,C_1*%
%TO.N,GND*%
X124230000Y-101660000D03*
D14*
%TO.P,Q1,2,B_2*%
%TO.N,Net-(Q1-B)*%
X125500000Y-101660000D03*
%TO.P,Q1,3,E_3*%
%TO.N,Net-(D1-K)*%
X126770000Y-101660000D03*
%TD*%
D13*
%TO.P,Q2,1,C_1*%
%TO.N,Net-(D2-K)*%
X126970000Y-110300000D03*
D14*
%TO.P,Q2,2,B_2*%
%TO.N,Net-(Q2-B)*%
X125700000Y-110300000D03*
%TO.P,Q2,3,E_3*%
%TO.N,GND*%
X124430000Y-110300000D03*
%TD*%
D15*
%TO.P,J1,1,Pin_1_1*%
%TO.N,Net-(J1-Pin_1)*%
X117600000Y-105860000D03*
D16*
%TO.P,J1,2,Pin_2_2*%
%TO.N,GND*%
X117600000Y-108400000D03*
%TD*%
D10*
%TO.P,R1,1*%
%TO.N,Net-(J1-Pin_1)*%
X148040000Y-99600000D03*
%TO.P,R1,2*%
%TO.N,Net-(D1-A)*%
X142960000Y-99600000D03*
%TD*%
%TO.P,R3,1*%
%TO.N,Net-(J1-Pin_1)*%
X143560000Y-107800000D03*
%TO.P,R3,2*%
%TO.N,Net-(Q1-B)*%
X148640000Y-107800000D03*
%TD*%
%TO.P,R4,1*%
%TO.N,Net-(J1-Pin_1)*%
X143660000Y-112600000D03*
%TO.P,R4,2*%
%TO.N,Net-(D2-A)*%
X148740000Y-112600000D03*
%TD*%
D17*
%TO.P,D2,1,K_1*%
%TO.N,Net-(D2-K)*%
X154300000Y-110700000D03*
D18*
%TO.P,D2,2,A_2*%
%TO.N,Net-(D2-A)*%
X156840000Y-110700000D03*
%TD*%
D11*
%TO.P,C2,1*%
%TO.N,Net-(D2-K)*%
X133617621Y-111300000D03*
D12*
%TO.P,C2,2*%
%TO.N,Net-(Q1-B)*%
X136117621Y-111300000D03*
%TD*%
D17*
%TO.P,D1,1,K_1*%
%TO.N,Net-(D1-K)*%
X154100000Y-101800000D03*
D18*
%TO.P,D1,2,A_2*%
%TO.N,Net-(D1-A)*%
X156640000Y-101800000D03*
%TD*%
%TO.N,Net-(Q2-B)*%
D19*
X134867621Y-103850000D02*
X136117621Y-102600000D01*
X131245000Y-103850000D02*
X134867621Y-103850000D01*
X125700000Y-110300000D02*
X125700000Y-109395000D01*
X125700000Y-109395000D02*
X131245000Y-103850000D01*
%TO.N,Net-(D1-K)*%
X134867621Y-101350000D02*
X133617621Y-102600000D01*
X154100000Y-101800000D02*
X153650000Y-101350000D01*
X153650000Y-101350000D02*
X134867621Y-101350000D01*
%TO.N,Net-(D2-K)*%
X133617621Y-111300000D02*
X134867621Y-110050000D01*
X153650000Y-110050000D02*
X154300000Y-110700000D01*
X134867621Y-110050000D02*
X153650000Y-110050000D01*
%TO.N,GND*%
D20*
X122530000Y-108400000D02*
X124430000Y-110300000D01*
X117600000Y-108400000D02*
X122530000Y-108400000D01*
%TO.N,Net-(J1-Pin_1)*%
X142960000Y-113300000D02*
X143660000Y-112600000D01*
X120307968Y-113300000D02*
X142960000Y-113300000D01*
X117600000Y-105860000D02*
X116050000Y-107410000D01*
X116050000Y-107410000D02*
X116050000Y-109042032D01*
X116050000Y-109042032D02*
X120307968Y-113300000D01*
%TD*%
%TA.AperFunction,Conductor*%
%TO.N,GND*%
G36*
X159042539Y-97320185D02*
G01*
X159088294Y-97372989D01*
X159099500Y-97424500D01*
X159099500Y-114775500D01*
X159079815Y-114842539D01*
X159027011Y-114888294D01*
X158975500Y-114899500D01*
X115624500Y-114899500D01*
X115557461Y-114879815D01*
X115511706Y-114827011D01*
X115500500Y-114775500D01*
X115500500Y-110206814D01*
X115520185Y-110139775D01*
X115572989Y-110094020D01*
X115642147Y-110084076D01*
X115705703Y-110113101D01*
X115712181Y-110119133D01*
X119527703Y-113934655D01*
X119527732Y-113934686D01*
X119670182Y-114077136D01*
X119670186Y-114077139D01*
X119834047Y-114186628D01*
X119834060Y-114186635D01*
X119962801Y-114239961D01*
X120005712Y-114257735D01*
X120016132Y-114262051D01*
X120112780Y-114281275D01*
X120161103Y-114290887D01*
X120209426Y-114300500D01*
X120209427Y-114300500D01*
X143058542Y-114300500D01*
X143077870Y-114296655D01*
X143155188Y-114281275D01*
X143251836Y-114262051D01*
X143305165Y-114239961D01*
X143433914Y-114186632D01*
X143597782Y-114077139D01*
X143737139Y-113937782D01*
X143737139Y-113937780D01*
X143747347Y-113927573D01*
X143747349Y-113927570D01*
X143868501Y-113806417D01*
X143929822Y-113772934D01*
X143936776Y-113771627D01*
X143941118Y-113770940D01*
X144120832Y-113712547D01*
X144289199Y-113626760D01*
X144442073Y-113515690D01*
X144575690Y-113382073D01*
X144686760Y-113229199D01*
X144772547Y-113060832D01*
X144830940Y-112881118D01*
X144860500Y-112694486D01*
X144860500Y-112505513D01*
X147539500Y-112505513D01*
X147539500Y-112694486D01*
X147569059Y-112881118D01*
X147627454Y-113060836D01*
X147713240Y-113229199D01*
X147824310Y-113382073D01*
X147957927Y-113515690D01*
X148110801Y-113626760D01*
X148190347Y-113667290D01*
X148279163Y-113712545D01*
X148279165Y-113712545D01*
X148279168Y-113712547D01*
X148375497Y-113743846D01*
X148458881Y-113770940D01*
X148645514Y-113800500D01*
X148645519Y-113800500D01*
X148834486Y-113800500D01*
X149021118Y-113770940D01*
X149021121Y-113770939D01*
X149200832Y-113712547D01*
X149369199Y-113626760D01*
X149522073Y-113515690D01*
X149655690Y-113382073D01*
X149766760Y-113229199D01*
X149852547Y-113060832D01*
X149910940Y-112881118D01*
X149940500Y-112694486D01*
X149940500Y-112505513D01*
X149910940Y-112318881D01*
X149874367Y-112206324D01*
X149852547Y-112139168D01*
X149852545Y-112139165D01*
X149852545Y-112139163D01*
X149803951Y-112043793D01*
X149766760Y-111970801D01*
X149655690Y-111817927D01*
X149522073Y-111684310D01*
X149369199Y-111573240D01*
X149200836Y-111487454D01*
X149021118Y-111429059D01*
X148834486Y-111399500D01*
X148834481Y-111399500D01*
X148645519Y-111399500D01*
X148645514Y-111399500D01*
X148458881Y-111429059D01*
X148279163Y-111487454D01*
X148110800Y-111573240D01*
X148056960Y-111612358D01*
X147957927Y-111684310D01*
X147957925Y-111684312D01*
X147957924Y-111684312D01*
X147824312Y-111817924D01*
X147824312Y-111817925D01*
X147824310Y-111817927D01*
X147776610Y-111883579D01*
X147713240Y-111970800D01*
X147627454Y-112139163D01*
X147569059Y-112318881D01*
X147539500Y-112505513D01*
X144860500Y-112505513D01*
X144830940Y-112318881D01*
X144794367Y-112206324D01*
X144772547Y-112139168D01*
X144772545Y-112139165D01*
X144772545Y-112139163D01*
X144723951Y-112043793D01*
X144686760Y-111970801D01*
X144575690Y-111817927D01*
X144442073Y-111684310D01*
X144289199Y-111573240D01*
X144120836Y-111487454D01*
X143941118Y-111429059D01*
X143754486Y-111399500D01*
X143754481Y-111399500D01*
X143565519Y-111399500D01*
X143565514Y-111399500D01*
X143378881Y-111429059D01*
X143199163Y-111487454D01*
X143030800Y-111573240D01*
X142976960Y-111612358D01*
X142877927Y-111684310D01*
X142877925Y-111684312D01*
X142877924Y-111684312D01*
X142744312Y-111817924D01*
X142744312Y-111817925D01*
X142744310Y-111817927D01*
X142696610Y-111883579D01*
X142633240Y-111970800D01*
X142547451Y-112139170D01*
X142523197Y-112213818D01*
X142483759Y-112271494D01*
X142419401Y-112298692D01*
X142405266Y-112299500D01*
X137242312Y-112299500D01*
X137175273Y-112279815D01*
X137129518Y-112227011D01*
X137119574Y-112157853D01*
X137141994Y-112102615D01*
X137184727Y-112043797D01*
X137229908Y-111981610D01*
X137322841Y-111799219D01*
X137386098Y-111604534D01*
X137418121Y-111402352D01*
X137418121Y-111197648D01*
X137386098Y-110995466D01*
X137386096Y-110995462D01*
X137386096Y-110995457D01*
X137375491Y-110962817D01*
X137373496Y-110892976D01*
X137409577Y-110833143D01*
X137472278Y-110802316D01*
X137493422Y-110800500D01*
X152775501Y-110800500D01*
X152842540Y-110820185D01*
X152888295Y-110872989D01*
X152899501Y-110924500D01*
X152899501Y-111647876D01*
X152905908Y-111707483D01*
X152956202Y-111842328D01*
X152956206Y-111842335D01*
X153042452Y-111957544D01*
X153042455Y-111957547D01*
X153157664Y-112043793D01*
X153157671Y-112043797D01*
X153292517Y-112094091D01*
X153292516Y-112094091D01*
X153299444Y-112094835D01*
X153352127Y-112100500D01*
X155247872Y-112100499D01*
X155307483Y-112094091D01*
X155442331Y-112043796D01*
X155557546Y-111957546D01*
X155643796Y-111842331D01*
X155671429Y-111768243D01*
X155673601Y-111762420D01*
X155715471Y-111706486D01*
X155780936Y-111682068D01*
X155849209Y-111696919D01*
X155877464Y-111718071D01*
X155927636Y-111768243D01*
X155927641Y-111768247D01*
X156029603Y-111842326D01*
X156105978Y-111897815D01*
X156234375Y-111963237D01*
X156302393Y-111997895D01*
X156302396Y-111997896D01*
X156407221Y-112031955D01*
X156512049Y-112066015D01*
X156729778Y-112100500D01*
X156729779Y-112100500D01*
X156950221Y-112100500D01*
X156950222Y-112100500D01*
X157167951Y-112066015D01*
X157377606Y-111997895D01*
X157574022Y-111897815D01*
X157752365Y-111768242D01*
X157908242Y-111612365D01*
X158037815Y-111434022D01*
X158137895Y-111237606D01*
X158206015Y-111027951D01*
X158240500Y-110810222D01*
X158240500Y-110589778D01*
X158206015Y-110372049D01*
X158137895Y-110162394D01*
X158137895Y-110162393D01*
X158103056Y-110094020D01*
X158037815Y-109965978D01*
X157979501Y-109885715D01*
X157908247Y-109787641D01*
X157908243Y-109787636D01*
X157752363Y-109631756D01*
X157752358Y-109631752D01*
X157574025Y-109502187D01*
X157574024Y-109502186D01*
X157574022Y-109502185D01*
X157511096Y-109470122D01*
X157377606Y-109402104D01*
X157377603Y-109402103D01*
X157167952Y-109333985D01*
X157001811Y-109307671D01*
X156950222Y-109299500D01*
X156729778Y-109299500D01*
X156678233Y-109307664D01*
X156512047Y-109333985D01*
X156302396Y-109402103D01*
X156302393Y-109402104D01*
X156105974Y-109502187D01*
X155927641Y-109631752D01*
X155927636Y-109631756D01*
X155877463Y-109681929D01*
X155816140Y-109715413D01*
X155746448Y-109710428D01*
X155690515Y-109668557D01*
X155673601Y-109637580D01*
X155643797Y-109557671D01*
X155643793Y-109557664D01*
X155557547Y-109442455D01*
X155557544Y-109442452D01*
X155442335Y-109356206D01*
X155442328Y-109356202D01*
X155307482Y-109305908D01*
X155307483Y-109305908D01*
X155247883Y-109299501D01*
X155247881Y-109299500D01*
X155247873Y-109299500D01*
X153723922Y-109299500D01*
X153723918Y-109299500D01*
X134793703Y-109299500D01*
X134793701Y-109299500D01*
X134648713Y-109328340D01*
X134648703Y-109328343D01*
X134512130Y-109384913D01*
X134512125Y-109384916D01*
X134486400Y-109402104D01*
X134486401Y-109402105D01*
X134389203Y-109467049D01*
X133893071Y-109963181D01*
X133831748Y-109996666D01*
X133805390Y-109999500D01*
X133017619Y-109999500D01*
X133017601Y-109999501D01*
X132914824Y-110010000D01*
X132914821Y-110010001D01*
X132748289Y-110065185D01*
X132748284Y-110065187D01*
X132598963Y-110157289D01*
X132474910Y-110281342D01*
X132382808Y-110430663D01*
X132382806Y-110430668D01*
X132354970Y-110514670D01*
X132327622Y-110597203D01*
X132327622Y-110597204D01*
X132327621Y-110597204D01*
X132317121Y-110699983D01*
X132317121Y-111900001D01*
X132317122Y-111900018D01*
X132327621Y-112002796D01*
X132341207Y-112043793D01*
X132371926Y-112136497D01*
X132374328Y-112206324D01*
X132338597Y-112266366D01*
X132276076Y-112297559D01*
X132254220Y-112299500D01*
X120773750Y-112299500D01*
X120706711Y-112279815D01*
X120686069Y-112263181D01*
X118396929Y-109974041D01*
X123405000Y-109974041D01*
X123405000Y-110050000D01*
X124149670Y-110050000D01*
X124129925Y-110069745D01*
X124080556Y-110155255D01*
X124055000Y-110250630D01*
X124055000Y-110349370D01*
X124080556Y-110444745D01*
X124129925Y-110530255D01*
X124149670Y-110550000D01*
X123405000Y-110550000D01*
X123405000Y-110625958D01*
X123444387Y-110823974D01*
X123444390Y-110823983D01*
X123521652Y-111010513D01*
X123521659Y-111010526D01*
X123633829Y-111178399D01*
X123633832Y-111178403D01*
X123776596Y-111321167D01*
X123776600Y-111321170D01*
X123944473Y-111433340D01*
X123944486Y-111433347D01*
X124131016Y-111510609D01*
X124131025Y-111510612D01*
X124180000Y-111520353D01*
X124180000Y-110580330D01*
X124199745Y-110600075D01*
X124285255Y-110649444D01*
X124380630Y-110675000D01*
X124479370Y-110675000D01*
X124574745Y-110649444D01*
X124660255Y-110600075D01*
X124674500Y-110585830D01*
X124674500Y-110626002D01*
X124677617Y-110641671D01*
X124680000Y-110665865D01*
X124680000Y-111520352D01*
X124728974Y-111510612D01*
X124728983Y-111510609D01*
X124915515Y-111433346D01*
X124915518Y-111433344D01*
X124995658Y-111379796D01*
X125062335Y-111358917D01*
X125129716Y-111377401D01*
X125133422Y-111379783D01*
X125214244Y-111433786D01*
X125400873Y-111511091D01*
X125566777Y-111544091D01*
X125598992Y-111550499D01*
X125598996Y-111550500D01*
X125598997Y-111550500D01*
X125801004Y-111550500D01*
X125801005Y-111550499D01*
X125999127Y-111511091D01*
X126000284Y-111510612D01*
X126042879Y-111492968D01*
X126079798Y-111477674D01*
X126149267Y-111470205D01*
X126194658Y-111489962D01*
X126194886Y-111489546D01*
X126199540Y-111492087D01*
X126201562Y-111492967D01*
X126202669Y-111493796D01*
X126202670Y-111493796D01*
X126202671Y-111493797D01*
X126337517Y-111544091D01*
X126337516Y-111544091D01*
X126344444Y-111544835D01*
X126397127Y-111550500D01*
X127542872Y-111550499D01*
X127602483Y-111544091D01*
X127737331Y-111493796D01*
X127852546Y-111407546D01*
X127938796Y-111292331D01*
X127989091Y-111157483D01*
X127995500Y-111097873D01*
X127995499Y-109502128D01*
X127989091Y-109442517D01*
X127981289Y-109421600D01*
X127938797Y-109307671D01*
X127938793Y-109307664D01*
X127852547Y-109192455D01*
X127852544Y-109192452D01*
X127737335Y-109106206D01*
X127737328Y-109106202D01*
X127602482Y-109055908D01*
X127602483Y-109055908D01*
X127542883Y-109049501D01*
X127542881Y-109049500D01*
X127542873Y-109049500D01*
X127542865Y-109049500D01*
X127406229Y-109049500D01*
X127339190Y-109029815D01*
X127293435Y-108977011D01*
X127283491Y-108907853D01*
X127312516Y-108844297D01*
X127318548Y-108837819D01*
X128450854Y-107705513D01*
X142359500Y-107705513D01*
X142359500Y-107894486D01*
X142389059Y-108081118D01*
X142447454Y-108260836D01*
X142472965Y-108310903D01*
X142533240Y-108429199D01*
X142644310Y-108582073D01*
X142777927Y-108715690D01*
X142930801Y-108826760D01*
X143007667Y-108865925D01*
X143099163Y-108912545D01*
X143099165Y-108912545D01*
X143099168Y-108912547D01*
X143195497Y-108943846D01*
X143278881Y-108970940D01*
X143465514Y-109000500D01*
X143465519Y-109000500D01*
X143654486Y-109000500D01*
X143841118Y-108970940D01*
X144020832Y-108912547D01*
X144189199Y-108826760D01*
X144342073Y-108715690D01*
X144475690Y-108582073D01*
X144586760Y-108429199D01*
X144672547Y-108260832D01*
X144730940Y-108081118D01*
X144760500Y-107894486D01*
X144760500Y-107705513D01*
X147439500Y-107705513D01*
X147439500Y-107894486D01*
X147469059Y-108081118D01*
X147527454Y-108260836D01*
X147552965Y-108310903D01*
X147613240Y-108429199D01*
X147724310Y-108582073D01*
X147857927Y-108715690D01*
X148010801Y-108826760D01*
X148087667Y-108865925D01*
X148179163Y-108912545D01*
X148179165Y-108912545D01*
X148179168Y-108912547D01*
X148275497Y-108943846D01*
X148358881Y-108970940D01*
X148545514Y-109000500D01*
X148545519Y-109000500D01*
X148734486Y-109000500D01*
X148921118Y-108970940D01*
X149100832Y-108912547D01*
X149269199Y-108826760D01*
X149422073Y-108715690D01*
X149555690Y-108582073D01*
X149666760Y-108429199D01*
X149752547Y-108260832D01*
X149810940Y-108081118D01*
X149840500Y-107894486D01*
X149840500Y-107705513D01*
X149810940Y-107518881D01*
X149752545Y-107339163D01*
X149686987Y-107210499D01*
X149666760Y-107170801D01*
X149555690Y-107017927D01*
X149422073Y-106884310D01*
X149269199Y-106773240D01*
X149239059Y-106757883D01*
X149100836Y-106687454D01*
X148921118Y-106629059D01*
X148734486Y-106599500D01*
X148734481Y-106599500D01*
X148545519Y-106599500D01*
X148545514Y-106599500D01*
X148358881Y-106629059D01*
X148179163Y-106687454D01*
X148010800Y-106773240D01*
X147949907Y-106817482D01*
X147857927Y-106884310D01*
X147857925Y-106884312D01*
X147857924Y-106884312D01*
X147724312Y-107017924D01*
X147724312Y-107017925D01*
X147724310Y-107017927D01*
X147688261Y-107067544D01*
X147613240Y-107170800D01*
X147527454Y-107339163D01*
X147469059Y-107518881D01*
X147439500Y-107705513D01*
X144760500Y-107705513D01*
X144730940Y-107518881D01*
X144672545Y-107339163D01*
X144606987Y-107210499D01*
X144586760Y-107170801D01*
X144475690Y-107017927D01*
X144342073Y-106884310D01*
X144189199Y-106773240D01*
X144159059Y-106757883D01*
X144020836Y-106687454D01*
X143841118Y-106629059D01*
X143654486Y-106599500D01*
X143654481Y-106599500D01*
X143465519Y-106599500D01*
X143465514Y-106599500D01*
X143278881Y-106629059D01*
X143099163Y-106687454D01*
X142930800Y-106773240D01*
X142869907Y-106817482D01*
X142777927Y-106884310D01*
X142777925Y-106884312D01*
X142777924Y-106884312D01*
X142644312Y-107017924D01*
X142644312Y-107017925D01*
X142644310Y-107017927D01*
X142608261Y-107067544D01*
X142533240Y-107170800D01*
X142447454Y-107339163D01*
X142389059Y-107518881D01*
X142359500Y-107705513D01*
X128450854Y-107705513D01*
X131519548Y-104636819D01*
X131580871Y-104603334D01*
X131607229Y-104600500D01*
X134941541Y-104600500D01*
X135039083Y-104581096D01*
X135086534Y-104571658D01*
X135223116Y-104515084D01*
X135272350Y-104482186D01*
X135346037Y-104432952D01*
X135852516Y-103926471D01*
X135913837Y-103892988D01*
X135959592Y-103891681D01*
X136015269Y-103900500D01*
X136015270Y-103900500D01*
X136219972Y-103900500D01*
X136219973Y-103900500D01*
X136422155Y-103868477D01*
X136616840Y-103805220D01*
X136799231Y-103712287D01*
X136892211Y-103644732D01*
X136964834Y-103591971D01*
X136964836Y-103591968D01*
X136964840Y-103591966D01*
X137109587Y-103447219D01*
X137109589Y-103447215D01*
X137109592Y-103447213D01*
X137162353Y-103374590D01*
X137229908Y-103281610D01*
X137322841Y-103099219D01*
X137386098Y-102904534D01*
X137418121Y-102702352D01*
X137418121Y-102497648D01*
X137386098Y-102295466D01*
X137386096Y-102295462D01*
X137386096Y-102295457D01*
X137375491Y-102262817D01*
X137373496Y-102192976D01*
X137409577Y-102133143D01*
X137472278Y-102102316D01*
X137493422Y-102100500D01*
X143099411Y-102100500D01*
X143166450Y-102120185D01*
X143212205Y-102172989D01*
X143222149Y-102242147D01*
X143193124Y-102305703D01*
X143137730Y-102342431D01*
X142999163Y-102387454D01*
X142830800Y-102473240D01*
X142797206Y-102497648D01*
X142677927Y-102584310D01*
X142677925Y-102584312D01*
X142677924Y-102584312D01*
X142544312Y-102717924D01*
X142544312Y-102717925D01*
X142544310Y-102717927D01*
X142528204Y-102740095D01*
X142433240Y-102870800D01*
X142347454Y-103039163D01*
X142289059Y-103218881D01*
X142259500Y-103405513D01*
X142259500Y-103594486D01*
X142289059Y-103781118D01*
X142347454Y-103960836D01*
X142433240Y-104129199D01*
X142544310Y-104282073D01*
X142677927Y-104415690D01*
X142830801Y-104526760D01*
X142908211Y-104566202D01*
X142999163Y-104612545D01*
X142999165Y-104612545D01*
X142999168Y-104612547D01*
X143073869Y-104636819D01*
X143178881Y-104670940D01*
X143365514Y-104700500D01*
X143365519Y-104700500D01*
X143554486Y-104700500D01*
X143741118Y-104670940D01*
X143920832Y-104612547D01*
X144089199Y-104526760D01*
X144242073Y-104415690D01*
X144375690Y-104282073D01*
X144486760Y-104129199D01*
X144572547Y-103960832D01*
X144630940Y-103781118D01*
X144641842Y-103712284D01*
X144660500Y-103594486D01*
X144660500Y-103405513D01*
X144630940Y-103218881D01*
X144588509Y-103088294D01*
X144572547Y-103039168D01*
X144572545Y-103039165D01*
X144572545Y-103039163D01*
X144523204Y-102942326D01*
X144486760Y-102870801D01*
X144375690Y-102717927D01*
X144242073Y-102584310D01*
X144089199Y-102473240D01*
X144058983Y-102457844D01*
X143920836Y-102387454D01*
X143782270Y-102342431D01*
X143724595Y-102302993D01*
X143697397Y-102238634D01*
X143709312Y-102169788D01*
X143756556Y-102118312D01*
X143820589Y-102100500D01*
X148179411Y-102100500D01*
X148246450Y-102120185D01*
X148292205Y-102172989D01*
X148302149Y-102242147D01*
X148273124Y-102305703D01*
X148217730Y-102342431D01*
X148079163Y-102387454D01*
X147910800Y-102473240D01*
X147877206Y-102497648D01*
X147757927Y-102584310D01*
X147757925Y-102584312D01*
X147757924Y-102584312D01*
X147624312Y-102717924D01*
X147624312Y-102717925D01*
X147624310Y-102717927D01*
X147608204Y-102740095D01*
X147513240Y-102870800D01*
X147427454Y-103039163D01*
X147369059Y-103218881D01*
X147339500Y-103405513D01*
X147339500Y-103594486D01*
X147369059Y-103781118D01*
X147427454Y-103960836D01*
X147513240Y-104129199D01*
X147624310Y-104282073D01*
X147757927Y-104415690D01*
X147910801Y-104526760D01*
X147988211Y-104566202D01*
X148079163Y-104612545D01*
X148079165Y-104612545D01*
X148079168Y-104612547D01*
X148153869Y-104636819D01*
X148258881Y-104670940D01*
X148445514Y-104700500D01*
X148445519Y-104700500D01*
X148634486Y-104700500D01*
X148821118Y-104670940D01*
X149000832Y-104612547D01*
X149169199Y-104526760D01*
X149322073Y-104415690D01*
X149455690Y-104282073D01*
X149566760Y-104129199D01*
X149652547Y-103960832D01*
X149710940Y-103781118D01*
X149721842Y-103712284D01*
X149740500Y-103594486D01*
X149740500Y-103405513D01*
X149710940Y-103218881D01*
X149668509Y-103088294D01*
X149652547Y-103039168D01*
X149652545Y-103039165D01*
X149652545Y-103039163D01*
X149603204Y-102942326D01*
X149566760Y-102870801D01*
X149455690Y-102717927D01*
X149322073Y-102584310D01*
X149169199Y-102473240D01*
X149138983Y-102457844D01*
X149000836Y-102387454D01*
X148862270Y-102342431D01*
X148804595Y-102302993D01*
X148777397Y-102238634D01*
X148789312Y-102169788D01*
X148836556Y-102118312D01*
X148900589Y-102100500D01*
X152575501Y-102100500D01*
X152642540Y-102120185D01*
X152688295Y-102172989D01*
X152699501Y-102224500D01*
X152699501Y-102747876D01*
X152705908Y-102807483D01*
X152756202Y-102942328D01*
X152756206Y-102942335D01*
X152842452Y-103057544D01*
X152842455Y-103057547D01*
X152957664Y-103143793D01*
X152957671Y-103143797D01*
X153092517Y-103194091D01*
X153092516Y-103194091D01*
X153099444Y-103194835D01*
X153152127Y-103200500D01*
X155047872Y-103200499D01*
X155107483Y-103194091D01*
X155242331Y-103143796D01*
X155357546Y-103057546D01*
X155443796Y-102942331D01*
X155457893Y-102904534D01*
X155473601Y-102862420D01*
X155515471Y-102806486D01*
X155580936Y-102782068D01*
X155649209Y-102796919D01*
X155677464Y-102818071D01*
X155727636Y-102868243D01*
X155727641Y-102868247D01*
X155785110Y-102910000D01*
X155905978Y-102997815D01*
X156034375Y-103063237D01*
X156102393Y-103097895D01*
X156102396Y-103097896D01*
X156196102Y-103128342D01*
X156312049Y-103166015D01*
X156529778Y-103200500D01*
X156529779Y-103200500D01*
X156750221Y-103200500D01*
X156750222Y-103200500D01*
X156967951Y-103166015D01*
X157177606Y-103097895D01*
X157374022Y-102997815D01*
X157552365Y-102868242D01*
X157708242Y-102712365D01*
X157837815Y-102534022D01*
X157937895Y-102337606D01*
X158006015Y-102127951D01*
X158040500Y-101910222D01*
X158040500Y-101689778D01*
X158006015Y-101472049D01*
X157949952Y-101299501D01*
X157937896Y-101262396D01*
X157937895Y-101262393D01*
X157873432Y-101135880D01*
X157837815Y-101065978D01*
X157779501Y-100985715D01*
X157708247Y-100887641D01*
X157708243Y-100887636D01*
X157552363Y-100731756D01*
X157552358Y-100731752D01*
X157374025Y-100602187D01*
X157374024Y-100602186D01*
X157374022Y-100602185D01*
X157311096Y-100570122D01*
X157177606Y-100502104D01*
X157177603Y-100502103D01*
X156967952Y-100433985D01*
X156813359Y-100409500D01*
X156750222Y-100399500D01*
X156529778Y-100399500D01*
X156466641Y-100409500D01*
X156312047Y-100433985D01*
X156102396Y-100502103D01*
X156102393Y-100502104D01*
X155905974Y-100602187D01*
X155727641Y-100731752D01*
X155727636Y-100731756D01*
X155677463Y-100781929D01*
X155616140Y-100815413D01*
X155546448Y-100810428D01*
X155490515Y-100768557D01*
X155473601Y-100737580D01*
X155443797Y-100657671D01*
X155443793Y-100657664D01*
X155357547Y-100542455D01*
X155357544Y-100542452D01*
X155242335Y-100456206D01*
X155242328Y-100456202D01*
X155107482Y-100405908D01*
X155107483Y-100405908D01*
X155047883Y-100399501D01*
X155047881Y-100399500D01*
X155047873Y-100399500D01*
X155047864Y-100399500D01*
X153152129Y-100399500D01*
X153152123Y-100399501D01*
X153092516Y-100405908D01*
X152957671Y-100456202D01*
X152957664Y-100456206D01*
X152842457Y-100542451D01*
X152842451Y-100542457D01*
X152836948Y-100549809D01*
X152781015Y-100591681D01*
X152737680Y-100599500D01*
X149037625Y-100599500D01*
X148970586Y-100579815D01*
X148924831Y-100527011D01*
X148914887Y-100457853D01*
X148943912Y-100394297D01*
X148949944Y-100387819D01*
X148955690Y-100382073D01*
X149066760Y-100229199D01*
X149152547Y-100060832D01*
X149210940Y-99881118D01*
X149240500Y-99694486D01*
X149240500Y-99505513D01*
X149210940Y-99318881D01*
X149152545Y-99139163D01*
X149066759Y-98970800D01*
X148955690Y-98817927D01*
X148822073Y-98684310D01*
X148669199Y-98573240D01*
X148500836Y-98487454D01*
X148321118Y-98429059D01*
X148134486Y-98399500D01*
X148134481Y-98399500D01*
X147945519Y-98399500D01*
X147945514Y-98399500D01*
X147758881Y-98429059D01*
X147579163Y-98487454D01*
X147410800Y-98573240D01*
X147323579Y-98636610D01*
X147257927Y-98684310D01*
X147257925Y-98684312D01*
X147257924Y-98684312D01*
X147124312Y-98817924D01*
X147124312Y-98817925D01*
X147124310Y-98817927D01*
X147076610Y-98883579D01*
X147013240Y-98970800D01*
X146927454Y-99139163D01*
X146869059Y-99318881D01*
X146839500Y-99505513D01*
X146839500Y-99694486D01*
X146869059Y-99881118D01*
X146927454Y-100060836D01*
X147013240Y-100229199D01*
X147124310Y-100382073D01*
X147124312Y-100382075D01*
X147130056Y-100387819D01*
X147163541Y-100449142D01*
X147158557Y-100518834D01*
X147116685Y-100574767D01*
X147051221Y-100599184D01*
X147042375Y-100599500D01*
X143957625Y-100599500D01*
X143890586Y-100579815D01*
X143844831Y-100527011D01*
X143834887Y-100457853D01*
X143863912Y-100394297D01*
X143869944Y-100387819D01*
X143875690Y-100382073D01*
X143986760Y-100229199D01*
X144072547Y-100060832D01*
X144130940Y-99881118D01*
X144160500Y-99694486D01*
X144160500Y-99505513D01*
X144130940Y-99318881D01*
X144072545Y-99139163D01*
X143986759Y-98970800D01*
X143875690Y-98817927D01*
X143742073Y-98684310D01*
X143589199Y-98573240D01*
X143420836Y-98487454D01*
X143241118Y-98429059D01*
X143054486Y-98399500D01*
X143054481Y-98399500D01*
X142865519Y-98399500D01*
X142865514Y-98399500D01*
X142678881Y-98429059D01*
X142499163Y-98487454D01*
X142330800Y-98573240D01*
X142243579Y-98636610D01*
X142177927Y-98684310D01*
X142177925Y-98684312D01*
X142177924Y-98684312D01*
X142044312Y-98817924D01*
X142044312Y-98817925D01*
X142044310Y-98817927D01*
X141996610Y-98883579D01*
X141933240Y-98970800D01*
X141847454Y-99139163D01*
X141789059Y-99318881D01*
X141759500Y-99505513D01*
X141759500Y-99694486D01*
X141789059Y-99881118D01*
X141847454Y-100060836D01*
X141933240Y-100229199D01*
X142044310Y-100382073D01*
X142044312Y-100382075D01*
X142050056Y-100387819D01*
X142083541Y-100449142D01*
X142078557Y-100518834D01*
X142036685Y-100574767D01*
X141971221Y-100599184D01*
X141962375Y-100599500D01*
X134793701Y-100599500D01*
X134648713Y-100628340D01*
X134648703Y-100628343D01*
X134512129Y-100684914D01*
X134512126Y-100684915D01*
X134512126Y-100684916D01*
X134470773Y-100712547D01*
X134470772Y-100712546D01*
X134389210Y-100767044D01*
X134389202Y-100767050D01*
X133893071Y-101263181D01*
X133831748Y-101296666D01*
X133805390Y-101299500D01*
X133017619Y-101299500D01*
X133017601Y-101299501D01*
X132914824Y-101310000D01*
X132914821Y-101310001D01*
X132748289Y-101365185D01*
X132748284Y-101365187D01*
X132598963Y-101457289D01*
X132474910Y-101581342D01*
X132382808Y-101730663D01*
X132382807Y-101730666D01*
X132327622Y-101897203D01*
X132327622Y-101897204D01*
X132327621Y-101897204D01*
X132317121Y-101999983D01*
X132317121Y-101999991D01*
X132317121Y-102538718D01*
X132317122Y-102975500D01*
X132297438Y-103042539D01*
X132244634Y-103088294D01*
X132193122Y-103099500D01*
X131171080Y-103099500D01*
X131026092Y-103128340D01*
X131026082Y-103128343D01*
X130889511Y-103184912D01*
X130889498Y-103184919D01*
X130766584Y-103267048D01*
X130766580Y-103267051D01*
X125117050Y-108916580D01*
X125117044Y-108916588D01*
X125067812Y-108990268D01*
X125067813Y-108990269D01*
X125034921Y-109039496D01*
X125034914Y-109039509D01*
X125019929Y-109075687D01*
X124976088Y-109130090D01*
X124909793Y-109152155D01*
X124857916Y-109142795D01*
X124728984Y-109089390D01*
X124728977Y-109089388D01*
X124680000Y-109079645D01*
X124680000Y-109934134D01*
X124677617Y-109958326D01*
X124674500Y-109973995D01*
X124674500Y-110014170D01*
X124660255Y-109999925D01*
X124574745Y-109950556D01*
X124479370Y-109925000D01*
X124380630Y-109925000D01*
X124285255Y-109950556D01*
X124199745Y-109999925D01*
X124180000Y-110019670D01*
X124180000Y-109079646D01*
X124179999Y-109079645D01*
X124131022Y-109089388D01*
X124131015Y-109089390D01*
X123944486Y-109166652D01*
X123944473Y-109166659D01*
X123776600Y-109278829D01*
X123776596Y-109278832D01*
X123633832Y-109421596D01*
X123633829Y-109421600D01*
X123521659Y-109589473D01*
X123521652Y-109589486D01*
X123444390Y-109776016D01*
X123444387Y-109776025D01*
X123405000Y-109974041D01*
X118396929Y-109974041D01*
X118209596Y-109786708D01*
X118176111Y-109725385D01*
X118181095Y-109655693D01*
X118222967Y-109599760D01*
X118240983Y-109588542D01*
X118307552Y-109554624D01*
X118361716Y-109515270D01*
X118361717Y-109515270D01*
X117729409Y-108882962D01*
X117792993Y-108865925D01*
X117907007Y-108800099D01*
X118000099Y-108707007D01*
X118065925Y-108592993D01*
X118082962Y-108529409D01*
X118715270Y-109161717D01*
X118715270Y-109161716D01*
X118754622Y-109107554D01*
X118851095Y-108918217D01*
X118916757Y-108716130D01*
X118916757Y-108716127D01*
X118950000Y-108506246D01*
X118950000Y-108293753D01*
X118916757Y-108083872D01*
X118916757Y-108083869D01*
X118851095Y-107881782D01*
X118754624Y-107692449D01*
X118715270Y-107638282D01*
X118715269Y-107638282D01*
X118082962Y-108270590D01*
X118065925Y-108207007D01*
X118000099Y-108092993D01*
X117907007Y-107999901D01*
X117792993Y-107934075D01*
X117729407Y-107917036D01*
X118399627Y-107246818D01*
X118460950Y-107213333D01*
X118487308Y-107210499D01*
X118497871Y-107210499D01*
X118497872Y-107210499D01*
X118557483Y-107204091D01*
X118692331Y-107153796D01*
X118807546Y-107067546D01*
X118893796Y-106952331D01*
X118944091Y-106817483D01*
X118950500Y-106757873D01*
X118950499Y-104962128D01*
X118944091Y-104902517D01*
X118893796Y-104767669D01*
X118893795Y-104767668D01*
X118893793Y-104767664D01*
X118807547Y-104652455D01*
X118807544Y-104652452D01*
X118692335Y-104566206D01*
X118692328Y-104566202D01*
X118557482Y-104515908D01*
X118557483Y-104515908D01*
X118497883Y-104509501D01*
X118497881Y-104509500D01*
X118497873Y-104509500D01*
X118497864Y-104509500D01*
X116702129Y-104509500D01*
X116702123Y-104509501D01*
X116642516Y-104515908D01*
X116507671Y-104566202D01*
X116507664Y-104566206D01*
X116392455Y-104652452D01*
X116392452Y-104652455D01*
X116306206Y-104767664D01*
X116306202Y-104767671D01*
X116255908Y-104902517D01*
X116249501Y-104962116D01*
X116249501Y-104962123D01*
X116249500Y-104962135D01*
X116249500Y-105744217D01*
X116229815Y-105811256D01*
X116213181Y-105831898D01*
X115712181Y-106332898D01*
X115650858Y-106366383D01*
X115581166Y-106361399D01*
X115525233Y-106319527D01*
X115500816Y-106254063D01*
X115500500Y-106245217D01*
X115500500Y-100862155D01*
X123205000Y-100862155D01*
X123205000Y-101410000D01*
X123949670Y-101410000D01*
X123929925Y-101429745D01*
X123880556Y-101515255D01*
X123855000Y-101610630D01*
X123855000Y-101709370D01*
X123880556Y-101804745D01*
X123929925Y-101890255D01*
X123949670Y-101910000D01*
X123205000Y-101910000D01*
X123205000Y-102457844D01*
X123211401Y-102517372D01*
X123211403Y-102517379D01*
X123261645Y-102652086D01*
X123261649Y-102652093D01*
X123347809Y-102767187D01*
X123347812Y-102767190D01*
X123462906Y-102853350D01*
X123462913Y-102853354D01*
X123597620Y-102903596D01*
X123597627Y-102903598D01*
X123657155Y-102909999D01*
X123657172Y-102910000D01*
X123980000Y-102910000D01*
X123980000Y-101940330D01*
X123999745Y-101960075D01*
X124085255Y-102009444D01*
X124180630Y-102035000D01*
X124279370Y-102035000D01*
X124374745Y-102009444D01*
X124460255Y-101960075D01*
X124474500Y-101945830D01*
X124474500Y-101986003D01*
X124477283Y-101999996D01*
X124477617Y-102001671D01*
X124480000Y-102025865D01*
X124480000Y-102910000D01*
X124802828Y-102910000D01*
X124802844Y-102909999D01*
X124862372Y-102903598D01*
X124862376Y-102903597D01*
X124997089Y-102853352D01*
X124997896Y-102852748D01*
X124998845Y-102852393D01*
X125004876Y-102849101D01*
X125005349Y-102849967D01*
X125063360Y-102828329D01*
X125119661Y-102837451D01*
X125200873Y-102871091D01*
X125364288Y-102903596D01*
X125398992Y-102910499D01*
X125398996Y-102910500D01*
X125398997Y-102910500D01*
X125601004Y-102910500D01*
X125601005Y-102910499D01*
X125799127Y-102871091D01*
X125985756Y-102793786D01*
X126066110Y-102740094D01*
X126132786Y-102719217D01*
X126200166Y-102737701D01*
X126203865Y-102740078D01*
X126284244Y-102793786D01*
X126284245Y-102793786D01*
X126284246Y-102793787D01*
X126314904Y-102806486D01*
X126470873Y-102871091D01*
X126634288Y-102903596D01*
X126668992Y-102910499D01*
X126668996Y-102910500D01*
X126668997Y-102910500D01*
X126871004Y-102910500D01*
X126871005Y-102910499D01*
X127069127Y-102871091D01*
X127255756Y-102793786D01*
X127423718Y-102681558D01*
X127566558Y-102538718D01*
X127678786Y-102370756D01*
X127756091Y-102184127D01*
X127795500Y-101986003D01*
X127795500Y-101333997D01*
X127756091Y-101135873D01*
X127678786Y-100949244D01*
X127678784Y-100949241D01*
X127678782Y-100949237D01*
X127566558Y-100781281D01*
X127423718Y-100638441D01*
X127255762Y-100526217D01*
X127255752Y-100526212D01*
X127069127Y-100448909D01*
X127069119Y-100448907D01*
X126871007Y-100409500D01*
X126871003Y-100409500D01*
X126668997Y-100409500D01*
X126668992Y-100409500D01*
X126470880Y-100448907D01*
X126470872Y-100448909D01*
X126284244Y-100526213D01*
X126203891Y-100579904D01*
X126137213Y-100600782D01*
X126069833Y-100582297D01*
X126066109Y-100579904D01*
X125985755Y-100526213D01*
X125799127Y-100448909D01*
X125799119Y-100448907D01*
X125601007Y-100409500D01*
X125601003Y-100409500D01*
X125398997Y-100409500D01*
X125398992Y-100409500D01*
X125200880Y-100448907D01*
X125200868Y-100448910D01*
X125119661Y-100482547D01*
X125050191Y-100490016D01*
X125005140Y-100470405D01*
X125004872Y-100470897D01*
X124999374Y-100467894D01*
X124997895Y-100467251D01*
X124997086Y-100466645D01*
X124862379Y-100416403D01*
X124862372Y-100416401D01*
X124802844Y-100410000D01*
X124480000Y-100410000D01*
X124480000Y-101294134D01*
X124477617Y-101318326D01*
X124474500Y-101333997D01*
X124474500Y-101374170D01*
X124460255Y-101359925D01*
X124374745Y-101310556D01*
X124279370Y-101285000D01*
X124180630Y-101285000D01*
X124085255Y-101310556D01*
X123999745Y-101359925D01*
X123980000Y-101379670D01*
X123980000Y-100410000D01*
X123657155Y-100410000D01*
X123597627Y-100416401D01*
X123597620Y-100416403D01*
X123462913Y-100466645D01*
X123462906Y-100466649D01*
X123347812Y-100552809D01*
X123347809Y-100552812D01*
X123261649Y-100667906D01*
X123261645Y-100667913D01*
X123211403Y-100802620D01*
X123211401Y-100802627D01*
X123205000Y-100862155D01*
X115500500Y-100862155D01*
X115500500Y-97424500D01*
X115520185Y-97357461D01*
X115572989Y-97311706D01*
X115624500Y-97300500D01*
X158975500Y-97300500D01*
X159042539Y-97320185D01*
G37*
%TD.AperFunction*%
%TD*%
M02*
